<svg width="40" height="40" viewBox="0 0 40 40" fill="none" xmlns="http://www.w3.org/2000/svg">
<path d="M14.584 15.4167V10.8334M14.584 10.8334C14.584 12.4442 18.5015 13.7501 23.334 13.7501C28.1665 13.7501 32.084 12.4442 32.084 10.8334M14.584 10.8334C14.584 9.22258 18.5015 7.91675 23.334 7.91675C28.1665 7.91675 32.084 9.22258 32.084 10.8334M32.084 10.8334V17.5001C32.084 18.2207 31.3 18.8802 30.0007 19.3892" stroke="url(#paint0_linear_25944_2490)" stroke-width="1.5" stroke-linecap="round" stroke-linejoin="round"/>
<path d="M25.416 22.4999V29.1666C25.416 30.7774 21.4985 32.0833 16.666 32.0833C11.8335 32.0833 7.91602 30.7774 7.91602 29.1666V22.4999M25.416 22.4999C25.416 24.1108 21.4985 25.4166 16.666 25.4166C11.8335 25.4166 7.91602 24.1108 7.91602 22.4999M25.416 22.4999C25.416 20.8891 21.4985 19.5833 16.666 19.5833C11.8335 19.5833 7.91602 20.8891 7.91602 22.4999" stroke="url(#paint1_linear_25944_2490)" stroke-width="1.5" stroke-linecap="round" stroke-linejoin="round"/>
<defs>
<linearGradient id="paint0_linear_25944_2490" x1="14.584" y1="19.3892" x2="25.1046" y2="3.34126" gradientUnits="userSpaceOnUse">
<stop stop-color="#7700EF"/>
<stop offset="1" stop-color="#E600FE"/>
</linearGradient>
<linearGradient id="paint1_linear_25944_2490" x1="7.91602" y1="32.0833" x2="19.7403" y2="15.5292" gradientUnits="userSpaceOnUse">
<stop stop-color="#7700EF"/>
<stop offset="1" stop-color="#E600FE"/>
</linearGradient>
</defs>
</svg>
