<svg width="40" height="40" viewBox="0 0 40 40" fill="none" xmlns="http://www.w3.org/2000/svg">
<path d="M7.91699 17.9166C7.91699 16.0756 9.40938 14.5833 11.2503 14.5833H28.7503C30.5913 14.5833 32.0837 16.0756 32.0837 17.9166V28.7499C32.0837 30.5909 30.5913 32.0833 28.7503 32.0833H11.2503C9.40938 32.0833 7.91699 30.5909 7.91699 28.7499V17.9166Z" stroke="url(#paint0_linear_25948_2529)" stroke-width="1.5" stroke-linecap="round" stroke-linejoin="round"/>
<path d="M23.75 23.3333C23.75 25.4043 22.071 27.0833 20 27.0833C17.929 27.0833 16.25 25.4043 16.25 23.3333C16.25 21.2623 17.929 19.5833 20 19.5833C22.071 19.5833 23.75 21.2623 23.75 23.3333Z" stroke="url(#paint1_linear_25948_2529)" stroke-width="1.5" stroke-linecap="round" stroke-linejoin="round"/>
<path d="M12.917 7.91675V10.4167" stroke="url(#paint2_linear_25948_2529)" stroke-width="1.5" stroke-linecap="round" stroke-linejoin="round"/>
<path d="M20 7.91675V10.4167" stroke="url(#paint3_linear_25948_2529)" stroke-width="1.5" stroke-linecap="round" stroke-linejoin="round"/>
<path d="M27.083 7.91675V10.4167" stroke="url(#paint4_linear_25948_2529)" stroke-width="1.5" stroke-linecap="round" stroke-linejoin="round"/>
<defs>
<linearGradient id="paint0_linear_25948_2529" x1="7.91699" y1="32.0833" x2="24.5434" y2="9.12303" gradientUnits="userSpaceOnUse">
<stop stop-color="#7700EF"/>
<stop offset="1" stop-color="#E600FE"/>
</linearGradient>
<linearGradient id="paint1_linear_25948_2529" x1="16.25" y1="27.0833" x2="23.75" y2="19.5833" gradientUnits="userSpaceOnUse">
<stop stop-color="#7700EF"/>
<stop offset="1" stop-color="#E600FE"/>
</linearGradient>
<linearGradient id="paint2_linear_25948_2529" x1="12.917" y1="10.4167" x2="14.6411" y2="9.72709" gradientUnits="userSpaceOnUse">
<stop stop-color="#7700EF"/>
<stop offset="1" stop-color="#E600FE"/>
</linearGradient>
<linearGradient id="paint3_linear_25948_2529" x1="20" y1="10.4167" x2="21.7241" y2="9.72709" gradientUnits="userSpaceOnUse">
<stop stop-color="#7700EF"/>
<stop offset="1" stop-color="#E600FE"/>
</linearGradient>
<linearGradient id="paint4_linear_25948_2529" x1="27.083" y1="10.4167" x2="28.8071" y2="9.72709" gradientUnits="userSpaceOnUse">
<stop stop-color="#7700EF"/>
<stop offset="1" stop-color="#E600FE"/>
</linearGradient>
</defs>
</svg>
