<svg width="40" height="40" viewBox="0 0 40 40" fill="none" xmlns="http://www.w3.org/2000/svg">
<path d="M25.0003 7.91675C25.0003 12.5191 22.5193 16.6667 17.917 16.6667C22.5193 16.6667 25.0003 20.8144 25.0003 25.4167C25.0003 20.8144 27.4813 16.6667 32.0837 16.6667C27.4813 16.6667 25.0003 12.5191 25.0003 7.91675Z" stroke="url(#paint0_linear_25951_738)" stroke-width="1.5" stroke-linecap="round" stroke-linejoin="round"/>
<path d="M13.3337 21.25C13.3337 24.0115 10.6784 26.6667 7.91699 26.6667C10.6784 26.6667 13.3337 29.3218 13.3337 32.0833C13.3337 29.3218 15.9889 26.6667 18.7503 26.6667C15.9889 26.6667 13.3337 24.0115 13.3337 21.25Z" stroke="url(#paint1_linear_25951_738)" stroke-width="1.5" stroke-linecap="round" stroke-linejoin="round"/>
<defs>
<linearGradient id="paint0_linear_25951_738" x1="17.917" y1="25.4167" x2="35.0334" y2="11.5606" gradientUnits="userSpaceOnUse">
<stop stop-color="#7700EF"/>
<stop offset="1" stop-color="#E600FE"/>
</linearGradient>
<linearGradient id="paint1_linear_25951_738" x1="7.91699" y1="32.0833" x2="18.7503" y2="21.25" gradientUnits="userSpaceOnUse">
<stop stop-color="#7700EF"/>
<stop offset="1" stop-color="#E600FE"/>
</linearGradient>
</defs>
</svg>
