<svg width="18" height="18" viewBox="0 0 18 18" fill="none" xmlns="http://www.w3.org/2000/svg">
<path d="M15.5392 7.39792C15.4003 7.41882 15.2755 7.49401 15.1921 7.60696C15.1087 7.7199 15.0736 7.86135 15.0945 8.00018C15.7283 12.0468 12.4801 15.8251 8.37772 15.7895C-0.628104 15.4169 -0.627362 2.58324 8.37772 2.21117C9.89268 2.21117 11.3255 2.69918 12.5212 3.62237C12.6324 3.70819 12.773 3.74634 12.9123 3.72842C13.0516 3.71051 13.1781 3.63801 13.2639 3.52686C13.3497 3.41571 13.3878 3.27503 13.3699 3.13575C13.352 2.99648 13.2795 2.87002 13.1684 2.7842C11.7855 1.71659 10.129 1.15234 8.37772 1.15234C-2.03221 1.58254 -2.0321 16.4184 8.37772 16.8483C13.12 16.8891 16.8757 12.5211 16.1413 7.84252C16.1311 7.77374 16.1073 7.70767 16.0715 7.64807C16.0356 7.58848 15.9884 7.53654 15.9325 7.49524C15.8765 7.45393 15.813 7.42406 15.7455 7.40734C15.678 7.39063 15.6078 7.38739 15.5391 7.39781L15.5392 7.39792Z" fill="#7700EF"/>
<path d="M17.3145 2.46509C17.2652 2.41602 17.2068 2.37713 17.1425 2.35066C17.0782 2.32418 17.0093 2.31064 16.9398 2.31079C16.8703 2.31095 16.8014 2.32481 16.7373 2.35157C16.6731 2.37834 16.6148 2.41749 16.5658 2.46679L8.41381 10.6542L5.72334 7.95149C5.62362 7.85528 5.49015 7.80199 5.35158 7.80307C5.21301 7.80414 5.08039 7.85949 4.98217 7.95724C4.88394 8.05499 4.82796 8.18735 4.82621 8.32591C4.82447 8.46447 4.87712 8.5982 4.97285 8.69839L8.03857 11.7781C8.08775 11.8275 8.14622 11.8667 8.2106 11.8935C8.27499 11.9203 8.34403 11.934 8.41376 11.934C8.48349 11.934 8.55253 11.9203 8.61692 11.8935C8.68131 11.8667 8.73977 11.8275 8.78896 11.7781L17.3161 3.21379C17.4151 3.1143 17.4706 2.97954 17.4703 2.83916C17.47 2.69878 17.414 2.56416 17.3145 2.46509Z" fill="#7700EF"/>
</svg>
