<svg width="32" height="32" viewBox="0 0 32 32" fill="none" xmlns="http://www.w3.org/2000/svg">
<rect width="32" height="32" rx="16" fill="url(#paint0_linear_25944_2248)"/>
<path d="M23.9425 12.0673L13.9425 22.0673C13.8845 22.1254 13.8156 22.1715 13.7397 22.203C13.6638 22.2344 13.5825 22.2506 13.5003 22.2506C13.4182 22.2506 13.3369 22.2344 13.261 22.203C13.1851 22.1715 13.1162 22.1254 13.0582 22.0673L8.68316 17.6923C8.56588 17.575 8.5 17.416 8.5 17.2501C8.5 17.0843 8.56588 16.9252 8.68316 16.8079C8.80044 16.6906 8.9595 16.6248 9.12535 16.6248C9.2912 16.6248 9.45026 16.6906 9.56753 16.8079L13.5003 20.7415L23.0582 11.1829C23.1754 11.0656 23.3345 10.9998 23.5003 10.9998C23.6662 10.9998 23.8253 11.0656 23.9425 11.1829C24.0598 11.3002 24.1257 11.4593 24.1257 11.6251C24.1257 11.791 24.0598 11.95 23.9425 12.0673Z" fill="white"/>
<defs>
<linearGradient id="paint0_linear_25944_2248" x1="0" y1="32" x2="32" y2="0" gradientUnits="userSpaceOnUse">
<stop stop-color="#7700EF"/>
<stop offset="1" stop-color="#E600FE"/>
</linearGradient>
</defs>
</svg>
