<svg width="32" height="32" viewBox="0 0 32 32" fill="none" xmlns="http://www.w3.org/2000/svg">
<rect width="32" height="32" rx="16" fill="#B71D18"/>
<path d="M22.0675 21.1829C22.1256 21.241 22.1717 21.3099 22.2031 21.3858C22.2345 21.4617 22.2507 21.543 22.2507 21.6251C22.2507 21.7072 22.2345 21.7885 22.2031 21.8644C22.1717 21.9403 22.1256 22.0092 22.0675 22.0673C22.0095 22.1254 21.9405 22.1714 21.8647 22.2028C21.7888 22.2343 21.7075 22.2505 21.6253 22.2505C21.5432 22.2505 21.4619 22.2343 21.386 22.2028C21.3102 22.1714 21.2412 22.1254 21.1832 22.0673L16.0003 16.8837L10.8175 22.0673C10.7003 22.1846 10.5412 22.2505 10.3753 22.2505C10.2095 22.2505 10.0504 22.1846 9.93316 22.0673C9.81588 21.95 9.75 21.791 9.75 21.6251C9.75 21.4593 9.81588 21.3002 9.93316 21.1829L15.1168 16.0001L9.93316 10.8173C9.81588 10.7 9.75 10.541 9.75 10.3751C9.75 10.2093 9.81588 10.0502 9.93316 9.93292C10.0504 9.81564 10.2095 9.74976 10.3753 9.74976C10.5412 9.74976 10.7003 9.81564 10.8175 9.93292L16.0003 15.1165L21.1832 9.93292C21.3004 9.81564 21.4595 9.74976 21.6253 9.74976C21.7912 9.74976 21.9503 9.81564 22.0675 9.93292C22.1848 10.0502 22.2507 10.2093 22.2507 10.3751C22.2507 10.541 22.1848 10.7 22.0675 10.8173L16.8839 16.0001L22.0675 21.1829Z" fill="white"/>
</svg>
