<svg width="36" height="36" viewBox="0 0 36 36" fill="none" xmlns="http://www.w3.org/2000/svg">
<path d="M22.9289 18.9559C22.9289 18.6873 22.8222 18.4298 22.6324 18.2399C22.4425 18.05 22.1849 17.9434 21.9164 17.9434H12.4439C12.1754 17.9434 11.9178 18.05 11.728 18.2399C11.5381 18.4298 11.4314 18.6873 11.4314 18.9559C11.4314 19.2244 11.5381 19.4819 11.728 19.6718C11.9178 19.8617 12.1754 19.9684 12.4439 19.9684H21.9164C22.1849 19.9684 22.4425 19.8617 22.6324 19.6718C22.8222 19.4819 22.9289 19.2244 22.9289 18.9559ZM12.4383 22.6402C12.1698 22.6402 11.9122 22.7469 11.7223 22.9368C11.5325 23.1267 11.4258 23.3842 11.4258 23.6527C11.4258 23.9213 11.5325 24.1788 11.7223 24.3687C11.9122 24.5586 12.1698 24.6652 12.4383 24.6652H17.8608C18.1293 24.6652 18.3868 24.5586 18.5767 24.3687C18.7666 24.1788 18.8733 23.9213 18.8733 23.6527C18.8733 23.3842 18.7666 23.1267 18.5767 22.9368C18.3868 22.7469 18.1293 22.6402 17.8608 22.6402H12.4383Z" fill="white"/>
<path d="M18.0339 30.8134H8.73016C8.09678 30.8134 7.58266 30.2982 7.58266 29.6659V14.0239H11.2187C12.0577 14.023 12.8621 13.6893 13.4554 13.096C14.0487 12.5027 14.3824 11.6983 14.3833 10.8593V7.22216H27.3264C27.9598 7.22216 28.4739 7.73741 28.4739 8.36966V17.7072C28.4739 17.9757 28.5806 18.2332 28.7705 18.4231C28.9603 18.613 29.2179 18.7197 29.4864 18.7197C29.7549 18.7197 30.0125 18.613 30.2024 18.4231C30.3922 18.2332 30.4989 17.9757 30.4989 17.7072V8.36966C30.498 7.52853 30.1635 6.72211 29.5687 6.12735C28.974 5.53258 28.1675 5.19805 27.3264 5.19716H26.5333V4.40516C26.5324 3.56552 26.1984 2.76053 25.6047 2.16682C25.011 1.57311 24.206 1.23917 23.3664 1.23828H4.76453C3.92481 1.23888 3.11965 1.57272 2.52587 2.1665C1.9321 2.76027 1.59825 3.56543 1.59766 4.40516V25.7104C1.59855 26.55 1.93249 27.355 2.5262 27.9487C3.11991 28.5424 3.9249 28.8764 4.76453 28.8773H5.55766V29.6659C5.55855 30.507 5.89308 31.3135 6.48785 31.9082C7.08261 32.503 7.88903 32.8375 8.73016 32.8384H18.0339C18.3024 32.8384 18.56 32.7317 18.7499 32.5419C18.9397 32.352 19.0464 32.0944 19.0464 31.8259C19.0464 31.5574 18.9397 31.2998 18.7499 31.11C18.56 30.9201 18.3024 30.8134 18.0339 30.8134ZM12.3572 10.8604C12.3572 11.4882 11.8453 12 11.2175 12H7.58266V11.4409C7.58266 11.2902 7.64791 11.136 7.74803 11.0303L11.3694 7.39766C11.481 7.28594 11.6322 7.22286 11.7902 7.22216H12.3572V10.8604ZM4.76453 26.8523C4.13453 26.8523 3.62153 26.3393 3.62153 25.7093V4.40516C3.62153 3.78641 4.14466 3.26216 4.76453 3.26216H23.3664C23.9964 3.26216 24.5083 3.77516 24.5083 4.40516V5.19716H11.7902C11.0915 5.19716 10.4334 5.47053 9.93728 5.96778L6.30241 9.61391C5.826 10.1029 5.55885 10.7582 5.55766 11.4409V26.8523H4.76453Z" fill="white"/>
<path d="M27.2117 20.377C23.246 20.377 20.0195 23.6035 20.0195 27.5691C20.0195 31.5347 23.246 34.7612 27.2117 34.7612C31.1773 34.7612 34.4038 31.5347 34.4038 27.5691C34.4038 23.6035 31.1773 20.377 27.2117 20.377ZM27.2117 32.7362C24.362 32.7362 22.0445 30.4176 22.0445 27.5691C22.0445 24.7206 24.3632 22.402 27.2117 22.402C30.0602 22.402 32.3788 24.7206 32.3788 27.5691C32.3773 28.939 31.8324 30.2524 30.8637 31.2211C29.895 32.1898 28.5816 32.7347 27.2117 32.7362Z" fill="white"/>
<path d="M28.6781 25.7295L26.4596 27.516L25.9073 26.8118C25.7377 26.6122 25.4974 26.4859 25.2368 26.4595C24.9762 26.4332 24.7154 26.5087 24.5093 26.6703C24.3032 26.832 24.1676 27.0671 24.131 27.3265C24.0945 27.5859 24.1597 27.8494 24.3131 28.0617L25.4989 29.5737C25.5818 29.6788 25.6846 29.7666 25.8016 29.8318C25.9185 29.897 26.0472 29.9385 26.1802 29.9537C26.3132 29.969 26.4479 29.9578 26.5766 29.9207C26.7053 29.8837 26.8253 29.8216 26.9299 29.7379L29.9471 27.3068C30.1488 27.1361 30.2757 26.8934 30.3009 26.6305C30.326 26.3675 30.2474 26.1051 30.0818 25.8993C29.9163 25.6935 29.6768 25.5605 29.4145 25.5288C29.1523 25.4971 28.888 25.5691 28.6781 25.7295Z" fill="white"/>
</svg>
