<svg width="36" height="36" viewBox="0 0 36 36" fill="none" xmlns="http://www.w3.org/2000/svg">
<g clip-path="url(#clip0_25955_1262)">
<path d="M17.9999 22.7483C16.3672 22.7484 14.735 22.3492 13.2467 21.551L2.51482 15.7944C0.958598 14.9598 -0.00484362 13.3457 0.000213642 11.582C0.00533833 9.81838 0.978153 8.2099 2.53916 7.38415L13.2981 1.69325C14.7466 0.926291 16.3608 0.52533 17.9999 0.52533C19.6389 0.52533 21.2531 0.926291 22.7016 1.69325L33.4606 7.38415C35.0216 8.20984 35.9944 9.81831 35.9995 11.582C36.0046 13.3457 35.0412 14.9598 33.485 15.7944L22.753 21.551C21.2651 22.3492 19.6322 22.7482 17.9999 22.7483ZM17.9999 3.33808C16.8192 3.33813 15.6565 3.62696 14.6131 4.1794L3.85432 9.87037C3.20429 10.2142 2.81488 10.8572 2.81279 11.5902C2.8107 12.3233 3.19627 12.9685 3.84434 13.3161L14.5763 19.0726C16.7203 20.2225 19.2799 20.2225 21.4238 19.0726L32.1558 13.3161C32.8039 12.9685 33.1895 12.3233 33.1874 11.5902C33.1853 10.8571 32.7959 10.2142 32.1458 9.87037L21.3866 4.1794C20.3432 3.62699 19.1805 3.33816 17.9999 3.33808ZM22.753 34.2773L35.2581 27.57C35.9425 27.2029 36.1997 26.3505 35.8326 25.6661C35.4656 24.9817 34.6132 24.7245 33.9288 25.0916L21.4236 31.7988C19.2799 32.9488 16.7202 32.9488 14.5708 31.7959L2.06573 25.159C1.37956 24.7949 0.528394 25.0559 0.164406 25.7419C-0.199717 26.4279 0.0612379 27.2791 0.747272 27.6432L13.2468 34.2772C14.7351 35.0755 16.3673 35.4746 17.9999 35.4746C19.6322 35.4747 21.2651 35.0755 22.753 34.2773ZM22.753 27.9493L35.2581 21.2421C35.9425 20.875 36.1997 20.0225 35.8326 19.3382C35.4656 18.6537 34.6132 18.3966 33.9288 18.7636L21.4236 25.4709C19.2799 26.6209 16.7202 26.6208 14.5708 25.468L2.06573 18.831C1.37956 18.4669 0.528394 18.7279 0.164406 19.4139C-0.199717 20.0999 0.0612379 20.9511 0.747272 21.3152L13.2468 27.9493C14.7351 28.7476 16.3673 29.1466 17.9999 29.1466C19.6322 29.1466 21.2651 28.7475 22.753 27.9493Z" fill="white"/>
</g>
<defs>
<clipPath id="clip0_25955_1262">
<rect width="36" height="36" fill="white"/>
</clipPath>
</defs>
</svg>
