<svg width="36" height="36" viewBox="0 0 36 36" fill="none" xmlns="http://www.w3.org/2000/svg">
<path d="M15.0135 16.125C13.7526 16.125 12.5201 15.7511 11.4717 15.0506C10.4234 14.3501 9.60628 13.3545 9.12377 12.1896C8.64126 11.0247 8.51501 9.74293 8.76099 8.5063C9.00698 7.26967 9.61413 6.13376 10.5057 5.2422C11.3973 4.35064 12.5332 3.74348 13.7698 3.4975C15.0064 3.25152 16.2882 3.37776 17.4531 3.86027C18.618 4.34278 19.6136 5.15988 20.3141 6.20824C21.0146 7.25661 21.3885 8.48915 21.3885 9.75C21.3865 11.4401 20.7142 13.0605 19.5191 14.2556C18.324 15.4507 16.7036 16.123 15.0135 16.125ZM15.0135 5.625C14.1977 5.625 13.4001 5.86693 12.7218 6.32019C12.0434 6.77345 11.5147 7.41769 11.2025 8.17143C10.8903 8.92518 10.8086 9.75458 10.9678 10.5548C11.1269 11.3549 11.5198 12.0899 12.0967 12.6668C12.6736 13.2437 13.4086 13.6366 14.2088 13.7957C15.0089 13.9549 15.8383 13.8732 16.5921 13.561C17.3458 13.2488 17.9901 12.7201 18.4433 12.0417C18.8966 11.3634 19.1385 10.5659 19.1385 9.75C19.1377 8.65623 18.7029 7.60748 17.9294 6.83406C17.156 6.06065 16.1073 5.6258 15.0135 5.625ZM16.5 32.625H9C5.373 32.625 3.375 30.6375 3.375 27.03C3.375 23.037 5.634 18.375 12 18.375H18C19.1559 18.3548 20.306 18.5418 21.396 18.927C21.6546 19.046 21.8584 19.2586 21.9665 19.5219C22.0745 19.7852 22.0787 20.0797 21.9783 20.346C21.8779 20.6123 21.6802 20.8306 21.4252 20.957C21.1702 21.0834 20.8767 21.1084 20.604 21.027C19.7669 20.739 18.885 20.6029 18 20.625H12C11.1434 20.559 10.2827 20.6796 9.47724 20.9786C8.6718 21.2776 7.94081 21.7477 7.33474 22.3567C6.72867 22.9656 6.26193 23.6988 5.96675 24.5056C5.67157 25.3124 5.55497 26.1737 5.625 27.03C5.625 29.3745 6.6345 30.375 9 30.375H16.5C16.7984 30.375 17.0845 30.4935 17.2955 30.7045C17.5065 30.9155 17.625 31.2016 17.625 31.5C17.625 31.7984 17.5065 32.0845 17.2955 32.2955C17.0845 32.5065 16.7984 32.625 16.5 32.625ZM30.2355 34.0185C29.9406 34.0178 29.65 33.9469 29.388 33.8115L27 32.583L24.6135 33.8115C24.3071 33.9719 23.9618 34.0429 23.617 34.0164C23.2722 33.9899 22.9417 33.8669 22.6635 33.6615C22.3887 33.4622 22.1759 33.1893 22.0495 32.8743C21.9232 32.5593 21.8885 32.2149 21.9495 31.881L22.3995 29.316L20.4225 27.429C20.1806 27.198 20.0088 26.9034 19.9269 26.5791C19.845 26.2548 19.8562 25.914 19.9593 25.5958C20.0623 25.2776 20.2531 24.9949 20.5097 24.7803C20.7662 24.5657 21.0781 24.4278 21.4095 24.3825L24.1635 23.9925L25.3485 21.639C25.503 21.334 25.7389 21.0778 26.0302 20.8988C26.3215 20.7198 26.6566 20.6251 26.9985 20.6251C27.3404 20.6251 27.6756 20.7198 27.9668 20.8988C28.2581 21.0778 28.4941 21.334 28.6485 21.639L29.8335 23.991L32.5875 24.381C32.9191 24.4263 33.2312 24.5643 33.4878 24.7791C33.7444 24.994 33.9352 25.2769 34.0381 25.5953C34.1411 25.9137 34.1521 26.2548 34.0698 26.5792C33.9875 26.9036 33.8153 27.1981 33.573 27.429L31.596 29.31L32.046 31.8765C32.1055 32.2105 32.07 32.5545 31.9435 32.8693C31.817 33.1841 31.6046 33.4571 31.3305 33.657C31.0136 33.8916 30.6298 34.0183 30.2355 34.0185ZM27 30.2775C27.2875 30.277 27.5709 30.3455 27.8265 30.477L29.685 31.434L29.337 29.445C29.2867 29.1574 29.3082 28.8618 29.3995 28.5844C29.4908 28.307 29.6492 28.0565 29.8605 27.855L31.314 26.469L29.2815 26.181C28.9952 26.1398 28.723 26.0303 28.488 25.8616C28.253 25.6929 28.0621 25.4701 27.9315 25.212L27 23.367L26.0685 25.215C25.9375 25.4725 25.7465 25.6948 25.5115 25.8629C25.2765 26.0311 25.0045 26.1402 24.7185 26.181L22.686 26.469L24.1395 27.8565C24.3505 28.0573 24.5088 28.307 24.6004 28.5836C24.692 28.8601 24.714 29.1549 24.6645 29.442L24.3165 31.434L26.175 30.477C26.4302 30.3457 26.713 30.2773 27 30.2775Z" fill="white"/>
</svg>
