<svg width="36" height="36" viewBox="0 0 36 36" fill="none" xmlns="http://www.w3.org/2000/svg">
<path d="M26.7766 33.75H9.22656C5.51406 33.75 2.47656 30.7125 2.47656 27V26.775L3.15156 8.775C3.26406 5.0625 6.30156 2.25 9.90156 2.25H26.1016C29.7016 2.25 32.7391 5.0625 32.8516 8.775L33.5266 26.775C33.6391 28.575 32.9641 30.2625 31.7266 31.6125C30.4891 32.9625 28.8016 33.75 27.0016 33.75H26.7766ZM9.90156 4.5C7.42656 4.5 5.51406 6.4125 5.40156 8.775L4.72656 27C4.72656 29.475 6.75156 31.5 9.22656 31.5H27.0016C28.2391 31.5 29.3641 30.9375 30.1516 30.0375C30.9391 29.1375 31.3891 28.0125 31.3891 26.775L30.7141 8.775C30.6016 6.3 28.6891 4.5 26.2141 4.5H9.90156Z" fill="white"/>
<path d="M18 15.75C13.6125 15.75 10.125 12.2625 10.125 7.875C10.125 7.2 10.575 6.75 11.25 6.75C11.925 6.75 12.375 7.2 12.375 7.875C12.375 11.025 14.85 13.5 18 13.5C21.15 13.5 23.625 11.025 23.625 7.875C23.625 7.2 24.075 6.75 24.75 6.75C25.425 6.75 25.875 7.2 25.875 7.875C25.875 12.2625 22.3875 15.75 18 15.75Z" fill="white"/>
</svg>
