<svg width="174" height="20" viewBox="0 0 174 20" fill="none" xmlns="http://www.w3.org/2000/svg">
<path d="M4.2583 0.316833V7.75652H11.2443V0.316833H15.4747V19.6822H11.2443V11.5807H4.2583V19.683H0V0.316833H4.2583Z" fill="white" fill-opacity="0.8"/>
<path d="M34.8448 9.79769C34.8448 16.1481 31.1149 20 25.6328 20C20.0663 20 16.8098 15.659 16.8098 10.1428C16.8098 4.33945 20.3995 2.35474e-08 25.9385 2.35474e-08C31.6999 -0.000373905 34.8448 4.45274 34.8448 9.79769ZM21.2901 10.0572C21.2901 13.8492 23.0167 16.5221 25.8548 16.5221C28.7223 16.5221 30.3634 13.706 30.3634 9.94015C30.3634 6.46486 28.7505 3.47604 25.8269 3.47604C22.9609 3.47679 21.2901 6.29173 21.2901 10.0572Z" fill="white" fill-opacity="0.8"/>
<path d="M36.1222 19.6832V0.317017H41.0766L44.9731 7.41157C46.0857 9.45509 47.1998 11.8658 48.0343 14.0507H48.1187C47.8402 11.4945 47.7565 8.87812 47.7565 5.9768V0.317017H51.6523V19.6824H47.2002L43.1918 12.2117C42.0784 10.1435 40.8539 7.64266 39.9357 5.37441L39.8521 5.40207C39.9643 7.9605 40.0197 10.6891 40.0197 13.8499V19.6843H36.1222V19.6832Z" fill="white" fill-opacity="0.8"/>
<path d="M69.489 18.7929C68.1815 19.2525 65.7038 19.8848 63.226 19.8848C59.8036 19.8848 57.3266 18.9937 55.6004 17.2695C53.8745 15.6014 52.9289 13.0751 52.9557 10.231C52.9836 3.79385 57.5207 0.117004 63.6715 0.117004C66.0931 0.117004 67.9577 0.603114 68.8755 1.06417L67.9852 4.57013C66.9555 4.10908 65.6748 3.73626 63.6164 3.73626C60.0807 3.73626 57.4092 5.80447 57.4092 10.0007C57.4092 13.9943 59.8304 16.3515 63.3093 16.3515C64.2836 16.3515 65.0638 16.2348 65.3966 16.0632V12.0098H62.5034V8.59248H69.489V18.7929Z" fill="white" fill-opacity="0.8"/>
<path d="M71.1989 0.317017H75.4018V8.87812H75.4854C75.9034 8.13101 76.3482 7.44186 76.7654 6.75159L81.0237 0.317017H86.2291L80.0219 8.56177L86.5638 19.6824H81.6094L77.016 11.3217L75.401 13.3623V19.6824H71.1982L71.1989 0.317017Z" fill="white" fill-opacity="0.8"/>
<path d="M92.395 0.317017V19.6824H88.1352V0.317017H92.395Z" fill="white" fill-opacity="0.8"/>
<path d="M98.9946 14.7126L97.6596 19.6833H93.2604L98.9932 0.317505H104.56L110.376 19.6833H105.814L104.367 14.7126H98.9946ZM103.754 11.4348L102.585 7.32643C102.251 6.17884 101.916 4.74146 101.638 3.59125H101.585C101.305 4.74146 101.027 6.20651 100.722 7.32643L99.6082 11.4348H103.754Z" fill="white" fill-opacity="0.8"/>
<path d="M111.997 3.99423H106.959V0.317017H121.378V3.99423H116.257V19.6824H111.997V3.99423Z" fill="white" fill-opacity="0.8"/>
<path d="M118.744 17.3542C118.744 15.8031 119.774 14.6821 121.247 14.6821C122.723 14.6821 123.725 15.7747 123.725 17.3542C123.725 18.8772 122.723 20.0001 121.221 20.0001C119.774 20.0001 118.744 18.8776 118.744 17.3542Z" fill="white" fill-opacity="0.8"/>
<path d="M138.306 19.0513C137.416 19.5109 135.634 19.9701 133.351 19.9701C128.062 19.9701 124.084 16.5213 124.084 10.172C124.084 4.1076 128.062 0 133.881 0C136.218 0 137.693 0.516767 138.334 0.861904L137.75 2.90281C136.832 2.44176 135.524 2.09774 133.965 2.09774C129.567 2.09774 126.644 4.99906 126.644 10.0849C126.644 14.8274 129.29 17.8708 133.854 17.8708C135.327 17.8708 136.832 17.556 137.805 17.0684L138.306 19.0513Z" fill="white" fill-opacity="0.8"/>
<path d="M154.655 9.79769C154.655 16.4637 150.731 20 145.943 20C140.989 20 137.511 16.0337 137.511 10.172C137.511 4.02235 141.213 2.58765e-08 146.223 2.58765e-08C151.343 -0.000373903 154.655 4.05189 154.655 9.79769ZM140.098 10.1144C140.098 14.2516 142.271 17.9587 146.082 17.9587C149.923 17.9587 152.095 14.3103 152.095 9.9136C152.095 6.06288 150.146 2.03866 146.112 2.03866C142.103 2.03866 140.098 5.86134 140.098 10.1144Z" fill="white" fill-opacity="0.8"/>
<path d="M171.162 11.1765C171.022 8.47484 170.857 5.23063 170.883 2.81692H170.8C170.159 5.08405 169.381 7.50038 168.435 10.1725L165.122 19.5697H163.285L160.251 10.3449C159.361 7.61667 158.61 5.11509 158.081 2.81692H158.025C157.971 5.23063 157.831 8.47671 157.663 11.3784L157.163 19.6822H154.852L156.16 0.316833H159.249L162.45 9.68114C163.228 12.0668 163.87 14.1933 164.343 16.2073H164.426C164.899 14.252 165.565 12.1255 166.402 9.68114L169.742 0.316833H172.831L174 19.6822H171.635L171.162 11.1765Z" fill="white" fill-opacity="0.8"/>
</svg>
