<svg width="137" height="34" viewBox="0 0 137 34" fill="none" xmlns="http://www.w3.org/2000/svg">
<g clip-path="url(#clip0_25608_3143)">
<path d="M54.8165 4.27793C53.9128 4.3363 53.3803 4.86919 53.3895 5.77634C53.3981 6.76144 54.0196 7.21467 54.9415 7.2806C55.9245 7.18308 56.5137 6.62547 56.4653 5.69085C56.4183 4.75898 55.7954 4.21475 54.8165 4.27793ZM84.3203 17.7228C85.4434 11.977 80.3902 7.30257 74.9195 8.8621C71.1126 9.94883 68.9794 13.5816 69.4917 18.1115C70.1382 23.8232 75.6762 26.8932 80.8644 24.3956C82.7745 23.4751 83.8475 21.918 84.2461 19.6123L81.5754 19.6545L81.3351 20.3406C80.3002 22.4241 78.2871 23.2409 75.7727 22.5796C73.6267 22.0155 72.3158 20.174 72.4256 17.7225L84.3203 17.7228ZM76.3993 11.006C79.1888 10.8041 81.0583 12.3053 81.5205 15.2805H72.4648C72.5094 12.969 74.1737 11.1667 76.3993 11.006ZM64.2156 4.32153H61.3997V8.95412H58.6917V11.3116H61.4138C61.4138 11.8916 61.4124 12.3558 61.4138 12.8176C61.4224 15.8704 61.3973 18.9242 61.4567 21.9739C61.4873 23.5692 62.0902 24.4118 63.4094 24.6003C64.6997 24.7877 66.0237 24.7483 67.3546 24.808V22.3746C66.8155 22.3746 66.3465 22.3417 65.8857 22.3811C64.687 22.4848 64.139 22.0113 64.2015 20.756C64.2692 19.3833 64.216 18.0054 64.216 16.6289V11.28H67.3721V8.92974H64.216L64.2156 4.32153ZM53.6615 24.6566H56.2112V9.00906H53.6615V24.6566ZM13.7626 19.512C11.9909 17.8866 10.2421 16.2302 8.46285 14.612C7.5945 13.8219 7.45235 13.1184 8.411 12.2607C9.62683 11.1722 10.7908 10.022 11.929 8.85215C13.5356 7.20197 15.0952 5.5099 16.4339 4.08943C15.3448 2.80801 14.1784 1.43664 12.9382 -0.0233154C8.70697 4.08222 4.61861 8.00062 0.597546 11.9873C-0.277331 12.8554 -0.166426 14.1059 0.762014 15.0024C4.1283 18.2516 7.53921 21.4551 10.9999 24.74C12.0001 23.7889 12.944 22.9226 13.8539 22.0213C14.9327 20.9493 14.8967 20.5555 13.7626 19.512Z" fill="#E57B25"/>
<path d="M22.8324 14.8987C20.9312 13.117 19.018 11.3446 17.0774 9.53818C16.0384 10.5308 15.1254 11.4393 14.1726 12.3039C13.2977 13.0985 13.3554 13.7728 14.2302 14.5519C16.0936 16.211 17.9007 17.9326 19.7411 19.6178C20.571 20.3773 20.6466 21.0867 19.7823 21.9022C17.9059 23.6766 16.0559 25.4793 14.2151 27.2891C13.2445 28.2436 12.3133 29.2401 11.4339 30.1465C12.681 31.4516 13.8968 32.7234 15.1367 34.0227C15.3801 33.8953 15.4694 33.8709 15.5278 33.815C19.4349 30.0555 23.3498 26.304 27.2349 22.5212C28.3532 21.4304 28.2478 20.0439 27.0485 18.8923C25.6504 17.5534 24.245 16.2222 22.8324 14.8987ZM50.5081 19.8805C50.4246 18.1853 49.478 17.0491 47.9676 16.4692C46.7318 15.9943 45.4071 15.7571 44.1347 15.3739C42.9872 15.0292 41.7854 14.7682 40.7392 14.2164C39.4956 13.5606 39.5773 12.0632 40.8597 11.4754C42.8021 10.5827 46.2738 10.5257 47.1693 13.5589H49.7489C49.7032 11.894 49.1264 10.5641 47.7815 9.63912C45.5235 8.08852 40.7687 8.22174 38.5626 9.87741C36.2182 11.6399 36.3741 15.0281 38.9366 16.4311C39.8609 16.9372 40.9325 17.1961 41.9567 17.4972C43.314 17.8965 44.7108 18.1712 46.0527 18.6131C46.9471 18.9084 47.6355 19.4952 47.547 20.6091C47.4556 21.749 46.6862 22.2936 45.7251 22.4793C43.9029 22.8327 43.5431 22.7729 41.6474 22.4381C40.5895 22.2507 39.8389 21.5523 39.4667 20.4611L39.2967 19.7606L36.645 19.7469C36.6817 21.7013 37.3417 23.2316 38.9671 24.0461C41.9409 25.5328 45.5472 25.5006 48.4878 23.9201C50.0346 23.0878 50.5939 21.6003 50.5081 19.8805ZM155.428 11.2484V8.94348H152.204V4.33012H149.387V8.95962H146.796V11.3113H149.418C149.418 11.9297 149.413 12.432 149.418 12.9336C149.452 16.028 149.471 19.1213 149.529 22.2146C149.551 23.4754 150.165 24.4169 151.445 24.6003C152.738 24.7843 154.061 24.7476 155.406 24.809V22.3719C154.727 22.3719 154.132 22.3647 153.537 22.3739C152.697 22.3908 152.232 21.9949 152.229 21.1468C152.222 17.9285 152.225 14.7102 152.225 11.2478C153.397 11.2484 154.404 11.2484 155.428 11.2484ZM113.351 8.59463C108.733 8.25367 105.366 11.2821 104.996 16.1083C104.603 21.2347 107.478 24.7465 112.375 25.1208C117.046 25.4789 120.508 22.467 120.866 17.7338C121.267 12.4471 118.406 8.96683 113.351 8.59463ZM112.028 22.6617C109.231 22.1968 107.672 19.5817 107.979 15.869C108.215 13.036 110.236 11.0177 112.858 10.9998C115.934 10.9789 117.918 13.2962 117.912 16.8963C117.904 20.7917 115.418 23.2255 112.028 22.6617ZM125.605 4.28583C124.655 4.2357 124.028 4.69099 123.957 5.67368C123.883 6.67423 124.484 7.14326 125.449 7.29021C126.344 7.21433 127.003 6.73878 127.025 5.79798C127.046 4.94405 126.527 4.3339 125.605 4.28583ZM99.0541 9.48221C96.3745 7.94946 92.6745 8.33436 89.9338 10.5006L89.9379 9.04065H87.3459V30.7302H90.031V22.9717C92.6659 25.2787 95.3908 25.6269 98.2438 24.6099C101.107 23.587 102.307 21.2185 102.725 18.3601C103.267 14.6525 101.778 11.0397 99.0541 9.48221ZM99.8867 17.0227C99.8263 17.8711 99.6752 18.7319 99.4218 19.5416C98.7894 21.5804 97.326 22.6593 95.248 22.743C93.0948 22.8289 91.4034 21.8558 90.5989 19.9701C89.7151 17.9017 89.7024 15.7859 90.6051 13.7227C91.4034 11.8926 92.8493 10.9758 94.8627 10.9933C97.9632 10.9981 100.134 13.5719 99.8867 17.0227ZM144.365 12.9742C144.269 10.4285 142.57 8.94314 140.055 8.6475C137.561 8.35428 135.264 8.8573 133.505 11.132L133.496 9.03413H131.006V24.6782H133.716C133.716 24.0732 133.714 23.5633 133.716 23.0534C133.734 20.3852 133.637 17.7104 133.796 15.0518C133.979 11.9527 136.596 10.4494 139.649 11.1451C140.725 11.3902 141.445 12.1862 141.602 13.3199C141.719 14.168 141.752 15.0319 141.759 15.89C141.777 18.8044 141.766 21.7174 141.766 24.7036H144.406C144.404 20.7069 144.515 16.8356 144.365 12.9742ZM124.188 24.6854H126.776V9.03413H124.188V24.6854Z" fill="#07508B"/>
</g>
<g clip-path="url(#clip1_25608_3143)">
<path d="M51.0844 6.18621C50.3157 6.23582 49.8627 6.68878 49.8706 7.45986C49.8779 8.29719 50.4065 8.68244 51.1907 8.73848C52.0269 8.65559 52.5281 8.18162 52.4869 7.38719C52.4469 6.5951 51.9171 6.13251 51.0844 6.18621ZM76.1812 17.6143C77.1366 12.7305 72.8382 8.75715 68.1846 10.0828C64.9464 11.0065 63.1318 14.0943 63.5675 17.9447C64.1175 22.7997 68.8283 25.4092 73.2415 23.2862C74.8663 22.5038 75.7791 21.1802 76.1182 19.2204L73.8464 19.2563L73.642 19.8394C72.7617 21.6104 71.0493 22.3047 68.9104 21.7426C67.085 21.2631 65.9698 19.6979 66.0633 17.6141L76.1812 17.6143ZM69.4434 11.9051C71.8162 11.7335 73.4066 13.0095 73.7997 15.5384H66.0966C66.1346 13.5736 67.5502 12.0417 69.4434 11.9051ZM59.0796 6.22327H56.6843V10.161H54.3807V12.1648H56.6963C56.6963 12.6578 56.6951 13.0524 56.6963 13.4449C56.7036 16.0398 56.6822 18.6356 56.7328 21.2278C56.7588 22.5838 57.2716 23.3 58.3938 23.4602C59.4914 23.6195 60.6176 23.586 61.7497 23.6368V21.5684C61.2911 21.5684 60.8922 21.5404 60.5002 21.5739C59.4806 21.6621 59.0144 21.2596 59.0676 20.1926C59.1251 19.0258 59.0799 17.8545 59.0799 16.6845V12.138H61.7646V10.1403H59.0799L59.0796 6.22327ZM50.1019 23.5081H52.2708V10.2077H50.1019V23.5081ZM16.1626 19.1352C14.6555 17.7536 13.168 16.3457 11.6544 14.9701C10.9158 14.2986 10.7949 13.7006 11.6103 12.9715C12.6446 12.0464 13.6347 11.0686 14.6029 10.0743C15.9695 8.67164 17.2961 7.23338 18.4349 6.02598C17.5084 4.93678 16.5163 3.77112 15.4613 2.53015C11.8621 6.01985 8.3844 9.35049 4.96395 12.7392C4.21975 13.477 4.31409 14.54 5.10385 15.302C7.96732 18.0638 10.8688 20.7868 13.8126 23.579C14.6634 22.7705 15.4663 22.0342 16.2403 21.2681C17.1579 20.3569 17.1273 20.0221 16.1626 19.1352Z" fill="white" fill-opacity="0.8"/>
<path d="M23.8764 15.2139C22.2592 13.6995 20.6318 12.1929 18.981 10.6575C18.0972 11.5012 17.3206 12.2735 16.5101 13.0084C15.7659 13.6837 15.815 14.2569 16.5592 14.9191C18.1442 16.3294 19.6814 17.7927 21.2469 19.2252C21.9528 19.8707 22.0171 20.4737 21.282 21.1669C19.6858 22.6752 18.1121 24.2074 16.5463 25.7458C15.7206 26.5571 14.9285 27.4041 14.1805 28.1746C15.2413 29.2839 16.2755 30.3649 17.3302 31.4693C17.5373 31.361 17.6132 31.3403 17.6629 31.2928C20.9864 28.0972 24.3166 24.9084 27.6214 21.6931C28.5726 20.7659 28.483 19.5873 27.4628 18.6085C26.2735 17.4704 25.0781 16.3389 23.8764 15.2139ZM47.4183 19.4484C47.3473 18.0075 46.5421 17.0418 45.2572 16.5489C44.2061 16.1452 43.0793 15.9435 41.9968 15.6178C41.0207 15.3248 39.9985 15.103 39.1085 14.634C38.0507 14.0766 38.1202 12.8038 39.2111 12.3041C40.8633 11.5453 43.8164 11.4969 44.5782 14.0751H46.7725C46.7337 12.6599 46.243 11.5295 45.0989 10.7433C43.1783 9.42527 39.1337 9.53851 37.2571 10.9458C35.2628 12.4439 35.3954 15.3239 37.5752 16.5165C38.3614 16.9467 39.273 17.1667 40.1442 17.4227C41.2988 17.7621 42.4869 17.9956 43.6284 18.3712C44.3892 18.6222 44.9748 19.121 44.8994 20.0677C44.8218 21.0367 44.1672 21.4996 43.3497 21.6575C41.7997 21.9578 41.4936 21.907 39.8811 21.6224C38.9812 21.4631 38.3427 20.8695 38.0261 19.942L37.8815 19.3466L35.6259 19.3349C35.6571 20.9961 36.2185 22.2969 37.6012 22.9892C40.1308 24.2529 43.1984 24.2255 45.6997 22.8821C47.0155 22.1746 47.4913 20.9103 47.4183 19.4484ZM136.667 12.1112V10.152H133.924V6.23064H131.528V10.1657H129.324V12.1646H131.554C131.554 12.6902 131.55 13.1172 131.554 13.5436C131.583 16.1738 131.599 18.8031 131.649 21.4325C131.668 22.5041 132.19 23.3044 133.279 23.4603C134.379 23.6167 135.504 23.5855 136.648 23.6377V21.5661C136.07 21.5661 135.564 21.56 135.058 21.5679C134.343 21.5822 133.948 21.2457 133.946 20.5248C133.94 17.7892 133.942 15.0537 133.942 12.1106C134.939 12.1112 135.796 12.1112 136.667 12.1112ZM100.874 9.85547C96.9463 9.56565 94.082 12.1398 93.7671 16.2421C93.4333 20.5995 95.8785 23.5846 100.044 23.9027C104.017 24.2071 106.963 21.647 107.267 17.6238C107.608 13.1301 105.175 10.1718 100.874 9.85547ZM99.7491 21.8124C97.3698 21.4173 96.0441 19.1945 96.3052 16.0387C96.5053 13.6306 98.2244 11.9151 100.455 11.8999C103.071 11.8821 104.759 13.8518 104.755 16.9119C104.748 20.223 102.633 22.2917 99.7491 21.8124ZM111.298 6.19299C110.49 6.15038 109.957 6.53737 109.896 7.37266C109.833 8.22312 110.345 8.6218 111.166 8.74671C111.926 8.68221 112.487 8.27799 112.506 7.47831C112.524 6.75247 112.082 6.23385 111.298 6.19299ZM88.7131 10.6099C86.4338 9.30707 83.2864 9.63424 80.9551 11.4755L80.9586 10.2346H78.7538V28.6707H81.0378V22.076C83.2791 24.037 85.597 24.3329 88.0238 23.4684C90.4597 22.599 91.4799 20.5858 91.8359 18.1561C92.2965 15.0047 91.0298 11.9338 88.7131 10.6099ZM89.4214 17.0193C89.37 17.7405 89.2415 18.4722 89.0259 19.1604C88.4879 20.8934 87.2431 21.8104 85.4755 21.8816C83.6439 21.9546 82.2052 21.1275 81.5209 19.5246C80.7691 17.7665 80.7583 15.9681 81.5261 14.2143C82.2052 12.6587 83.4351 11.8795 85.1478 11.8944C87.7852 11.8984 89.6314 14.0862 89.4214 17.0193ZM127.256 13.5781C127.174 11.4143 125.729 10.1517 123.59 9.90041C121.468 9.65117 119.514 10.0787 118.018 12.0123L118.011 10.229H115.893V23.5265H118.198C118.198 23.0123 118.196 22.5789 118.198 22.1455C118.213 19.8775 118.131 17.6039 118.266 15.3441C118.421 12.7098 120.647 11.4321 123.245 12.0234C124.16 12.2317 124.772 12.9083 124.906 13.872C125.005 14.5928 125.034 15.3271 125.039 16.0565C125.054 18.5338 125.045 21.0098 125.045 23.5481H127.291C127.289 20.1509 127.384 16.8603 127.256 13.5781ZM110.093 23.5326H112.294V10.229H110.093V23.5326Z" fill="white" fill-opacity="0.8"/>
</g>
<defs>
<clipPath id="clip0_25608_3143">
<rect width="31.2679" height="34" fill="white"/>
</clipPath>
<clipPath id="clip1_25608_3143">
<rect width="102" height="28.9" fill="white" transform="translate(34.668 2.54999)"/>
</clipPath>
</defs>
</svg>
