<svg width="144" height="34" viewBox="0 0 144 34" fill="none" xmlns="http://www.w3.org/2000/svg">
<path fill-rule="evenodd" clip-rule="evenodd" d="M34.2079 0.870239L11.6847 19.9769L0.0234375 6.01706L34.2079 0.870239Z" fill="#335EEA"/>
<path fill-rule="evenodd" clip-rule="evenodd" d="M33.9447 0.64978L11.3615 19.6846L23.0227 33.6444L33.9447 0.64978Z" fill="#BECCF9"/>
<path fill-rule="evenodd" clip-rule="evenodd" d="M80.6448 17.867C80.6448 14.7508 78.4134 12.9741 75.9098 12.9741C73.4062 12.9741 72.2633 14.8602 72.2633 14.8602V5.59363H68.9978V26.2589H72.2633V17.7304C72.2633 17.7304 73.1341 16.0356 74.8213 16.0356C76.2363 16.0356 77.3792 16.8283 77.3792 18.6871V26.2589H80.6448V17.867ZM58.9228 26.2589V10.2406H53.6708V7.12439H67.4404V10.2406H62.1884V26.2589H58.9228ZM53.9093 17.8124C53.9093 14.8602 51.7323 12.9741 48.0314 12.9741C45.3374 12.9741 42.9427 14.1495 42.9427 14.1495L44.0039 16.8556C44.0039 16.8556 45.9905 15.8989 47.8682 15.8989C49.0111 15.8989 50.6439 16.4456 50.6439 18.1403V18.8784C50.6439 18.8784 49.4192 17.949 47.0518 17.949C44.2488 17.949 41.9902 19.7531 41.9902 22.2406C41.9902 25.0015 44.2217 26.5868 46.6435 26.5868C49.5553 26.5868 50.8888 24.6188 50.8888 24.6188V26.2589H53.9093V17.8124ZM50.6439 22.3499C50.6439 22.3499 49.6098 23.8534 47.6505 23.8534C46.6436 23.8534 45.3101 23.5527 45.3101 22.1859C45.3101 20.7919 46.698 20.3545 47.705 20.3545C49.4737 20.3545 50.6439 21.0106 50.6439 21.0106V22.3499ZM88.6787 12.9741C92.2163 12.9741 95.1824 15.735 95.1824 19.7258C95.1824 19.9719 95.1824 20.4638 95.1552 20.9559H85.522C85.7669 22.1039 87.1002 23.5801 89.1413 23.5801C91.3999 23.5801 92.6789 22.2679 92.6789 22.2679L94.3117 24.7281C94.3117 24.7281 92.2708 26.5868 89.1413 26.5868C85.2227 26.5868 82.202 23.5801 82.202 19.7804C82.202 15.9809 84.9505 12.9741 88.6787 12.9741ZM91.917 18.5777H85.522C85.6308 17.4297 86.5833 15.9536 88.6787 15.9536C90.8284 15.9536 91.8625 17.4571 91.917 18.5777ZM107.598 15.2429C107.601 15.2353 108.691 12.9741 111.707 12.9741C114.319 12.9741 116.224 14.8056 116.224 17.9217V26.2589H112.958V18.7691C112.958 16.9923 112.278 16.0356 110.645 16.0356C108.931 16.0356 108.115 17.703 108.115 17.703V26.2589H104.849V18.7691C104.849 16.9923 104.169 16.0356 102.536 16.0356C100.822 16.0356 100.005 17.703 100.005 17.703V26.2589H96.7397V13.3021H99.7876V15.1882C99.7876 15.1882 100.958 12.9741 103.597 12.9741C106.695 12.9741 107.595 15.2366 107.598 15.2429ZM130.761 19.7258C130.761 15.735 127.796 12.9741 124.258 12.9741C120.53 12.9741 117.781 15.9809 117.781 19.7804C117.781 23.5801 120.802 26.5868 124.721 26.5868C127.85 26.5868 129.891 24.7281 129.891 24.7281L128.258 22.2679C128.258 22.2679 126.979 23.5801 124.721 23.5801C122.68 23.5801 121.346 22.1039 121.101 20.9559H130.734C130.761 20.4638 130.761 19.9719 130.761 19.7258ZM121.102 18.5777H127.496C127.442 17.4571 126.408 15.9536 124.258 15.9536C122.163 15.9536 121.21 17.4297 121.102 18.5777ZM133.326 21.858L131.503 24.2361C131.503 24.2361 133.544 26.5868 137.326 26.5868C140.62 26.5868 142.96 24.8101 142.96 22.596C142.96 19.9172 141.136 19.0698 138.578 18.5231C136.401 18.0583 135.53 17.867 135.53 17.0743C135.53 16.2816 136.646 15.8443 137.871 15.8443C139.613 15.8443 141.081 16.965 141.081 16.965L142.715 14.5595C142.715 14.5595 140.783 12.9741 137.871 12.9741C134.333 12.9741 132.319 14.9969 132.319 17.0196C132.319 19.4798 134.551 20.5732 137.109 21.1199C139.068 21.5299 139.666 21.694 139.666 22.5414C139.666 23.3341 138.55 23.7167 137.218 23.7167C135.04 23.7167 133.326 21.858 133.326 21.858Z" fill="white" fill-opacity="0.8"/>
</svg>
