<svg width="120" height="34" viewBox="0 0 120 34" fill="none" xmlns="http://www.w3.org/2000/svg">
<g clip-path="url(#clip0_25608_3139)">
<path d="M0.0140686 6.31604H4.19813V15.3664H13.0226V6.31604H17.212V28.532H13.0226V19.2915H4.19813V28.532H0.0140686V6.31604ZM30.4671 21.2959C30.4671 23.1556 28.9109 24.669 27.0012 24.669C25.0908 24.669 23.5355 23.1556 23.5355 21.2959V11.7312H19.5675V21.2959C19.5675 25.2862 22.9024 28.532 27.0012 28.532C31.099 28.532 34.4337 25.2862 34.4337 21.2959V11.7312H30.4671V21.2959ZM45.5107 11.8432C43.5424 11.8432 42.1685 12.3993 40.8417 13.6673V6.31604H36.8609V19.94C36.8609 25.0395 40.6479 28.532 44.9025 28.532C49.6324 28.532 53.7766 24.9772 53.7766 20.1878C53.7766 15.4591 49.9552 11.8432 45.5107 11.8432ZM45.6096 24.9464C42.9122 24.9464 40.8495 22.7531 40.8495 20.1878C40.8495 17.6221 42.9122 15.428 45.6096 15.428C47.8952 15.428 49.9591 17.6221 49.9591 20.1878C49.9591 22.7531 47.8952 24.9464 45.6096 24.9464ZM60.4627 12.8196C60.4627 10.8714 61.796 10.2537 63.2557 10.2537C64.4309 10.2537 65.9859 11.1189 67.0008 12.17L69.6031 9.2033C68.3025 7.50376 65.6684 6.32905 63.5098 6.32905C59.1924 6.32905 56.0815 8.77066 56.0815 12.8196C56.0815 20.3293 65.573 17.9488 65.573 22.153C65.573 23.4495 64.272 24.5941 62.7809 24.5941C60.431 24.5941 59.6688 23.4815 58.59 22.3068L55.7009 25.2114C57.5431 27.4059 59.8277 28.519 62.558 28.519C66.6525 28.519 69.9539 26.0465 69.9539 22.1829C69.9539 13.8389 60.4627 16.4353 60.4627 12.8196ZM80.4338 11.6255C76.1796 11.6255 72.3921 15.1159 72.3921 20.2166V33.8757H76.3727V26.4894C77.6998 27.7566 79.073 28.3136 81.042 28.3136C85.4862 28.3136 89.3081 24.6982 89.3081 19.9694C89.3081 15.1793 85.1627 11.6255 80.4338 11.6255ZM81.1411 24.7292C78.4439 24.7292 76.3809 22.5329 76.3809 19.9694C76.3809 17.4037 78.4439 15.2097 81.1411 15.2097C83.4263 15.2097 85.4904 17.4037 85.4904 19.9694C85.4904 22.5329 83.4263 24.7292 81.1411 24.7292ZM118.61 24.9464C116.262 24.9464 115.595 23.9579 115.595 22.443V15.737H119.245V12.3379H115.595V7.85631L111.565 9.61746V23.2775C111.565 26.7701 114.04 28.532 117.435 28.532C117.943 28.532 118.642 28.5 119.024 28.4085L120.008 24.8857C119.563 24.9156 119.056 24.9464 118.61 24.9464Z" fill="white" fill-opacity="0.8"/>
<path d="M108.112 15.9346C107.349 14.6563 106.275 13.6315 104.933 12.86C103.931 12.2915 102.891 11.9308 101.719 11.7758V7.71409C102.891 7.22965 103.618 6.15739 103.618 4.90647C103.618 3.20145 102.214 1.81977 100.464 1.81977C98.7124 1.81977 97.2834 3.20145 97.2834 4.90647C97.2834 6.15739 97.9687 7.22965 99.1406 7.71409V11.7777C98.2031 11.9096 97.2309 12.1941 96.3431 12.6313C94.5298 11.2905 88.5837 6.8917 85.1053 4.32254C85.1878 4.03296 85.2513 3.73449 85.2513 3.4196C85.2513 1.53111 83.6805 0.000427246 81.7401 0.000427246C79.7998 0.000427246 78.2297 1.53111 78.2297 3.4196C78.2297 5.30785 79.8014 6.83899 81.7418 6.83899C82.4037 6.83899 83.0158 6.65051 83.5441 6.34063L84.2782 6.8828L94.3647 13.9585C93.8315 14.4351 93.3349 14.9773 92.9376 15.5857C92.1326 16.8259 91.6406 18.1904 91.6406 19.6789V19.9895C91.6406 21.0343 91.8445 22.0208 92.1919 22.9475C92.4977 23.7566 92.9449 24.4923 93.4987 25.1575L90.1512 28.4247C89.666 28.2489 89.1391 28.2128 88.6335 28.3207C88.1278 28.4287 87.6648 28.6761 87.2998 29.0335C87.047 29.2783 86.8467 29.5696 86.7104 29.8904C86.574 30.2112 86.5045 30.5552 86.5057 30.9023C86.5059 31.6081 86.7883 32.2715 87.3012 32.7705C87.5525 33.0168 87.8516 33.212 88.181 33.345C88.5104 33.4779 88.8636 33.5459 89.2202 33.545C89.5769 33.5459 89.9303 33.4779 90.2598 33.3449C90.5893 33.212 90.8885 33.0167 91.14 32.7705C91.3926 32.5256 91.5929 32.2345 91.7292 31.9138C91.8656 31.5932 91.9354 31.2494 91.9345 30.9023C91.9345 30.6292 91.8912 30.3627 91.8096 30.1094L95.2697 26.7402C95.7441 27.0592 96.2564 27.3278 96.8072 27.5594C97.8935 28.0167 99.0926 28.2953 100.405 28.2953H100.645C102.096 28.2953 103.465 27.9635 104.751 27.2849C106.107 26.5677 107.168 25.5869 107.969 24.3348C108.775 23.0794 109.219 21.6922 109.219 20.1661V20.0899C109.219 18.5886 108.862 17.2035 108.112 15.9346ZM103.884 23.0022C102.945 24.0183 101.866 24.6443 100.645 24.6443H100.444C99.7472 24.6443 99.0654 24.4567 98.3979 24.1156C97.6455 23.74 97.0737 23.2042 96.6056 22.5258C96.1219 21.8599 95.8594 21.1329 95.8594 20.3621V20.128C95.8594 19.3702 96.0087 18.6516 96.3851 17.973C96.7875 17.2311 97.331 16.6543 98.0538 16.1956C98.7635 15.7401 99.5215 15.5168 100.366 15.5168H100.444C101.21 15.5168 101.934 15.6637 102.618 16.0044C103.315 16.3677 103.884 16.864 104.326 17.5168C104.754 18.1699 105.009 18.8743 105.091 19.6417C105.104 19.8012 105.111 19.9646 105.111 20.1207C105.111 21.1621 104.702 22.1267 103.884 23.0022Z" fill="#F8761F"/>
</g>
<defs>
<clipPath id="clip0_25608_3139">
<rect width="120" height="34" fill="white"/>
</clipPath>
</defs>
</svg>
