<svg width="18" height="16" viewBox="0 0 18 16" fill="none" xmlns="http://www.w3.org/2000/svg">
<path d="M15.5388 6.39792C15.4 6.41882 15.2751 6.49401 15.1917 6.60696C15.1083 6.7199 15.0732 6.86135 15.0941 7.00018C15.7279 11.0468 12.4798 14.8251 8.37735 14.7895C-0.62847 14.4169 -0.627728 1.58324 8.37735 1.21117C9.89232 1.21117 11.3251 1.69918 12.5208 2.62237C12.632 2.70819 12.7727 2.74634 12.912 2.72842C13.0512 2.71051 13.1777 2.63801 13.2635 2.52686C13.3493 2.41571 13.3875 2.27503 13.3696 2.13575C13.3517 1.99648 13.2791 1.87002 13.168 1.7842C11.7852 0.716591 10.1286 0.152344 8.37735 0.152344C-2.03258 0.582544 -2.03247 15.4184 8.37735 15.8483C13.1196 15.8891 16.8754 11.5211 16.141 6.84252C16.1307 6.77374 16.107 6.70767 16.0711 6.64807C16.0353 6.58848 15.988 6.53654 15.9321 6.49524C15.8761 6.45393 15.8126 6.42406 15.7451 6.40734C15.6776 6.39063 15.6075 6.38739 15.5387 6.39781L15.5388 6.39792Z" fill="url(#paint0_linear_25433_8539)"/>
<path d="M17.3146 1.46485C17.2653 1.41577 17.2069 1.37689 17.1426 1.35041C17.0783 1.32394 17.0094 1.31039 16.9399 1.31055C16.8704 1.31071 16.8015 1.32456 16.7374 1.35133C16.6732 1.3781 16.6149 1.41725 16.5659 1.46654L8.41391 9.654L5.72343 6.95125C5.62371 6.85503 5.49024 6.80175 5.35167 6.80282C5.2131 6.8039 5.08048 6.85925 4.98226 6.957C4.88404 7.05475 4.82805 7.18711 4.82631 7.32567C4.82456 7.46423 4.87721 7.59795 4.97294 7.69814L8.03866 10.7778C8.08784 10.8273 8.14631 10.8665 8.2107 10.8932C8.27508 10.92 8.34412 10.9338 8.41385 10.9338C8.48358 10.9338 8.55262 10.92 8.61701 10.8932C8.6814 10.8665 8.73986 10.8273 8.78905 10.7778L17.3162 2.21354C17.4152 2.11405 17.4707 1.9793 17.4704 1.83892C17.4701 1.69854 17.414 1.56392 17.3146 1.46485Z" fill="url(#paint1_linear_25433_8539)"/>
<defs>
<linearGradient id="paint0_linear_25433_8539" x1="0.569946" y1="15.8486" x2="16.2662" y2="0.185542" gradientUnits="userSpaceOnUse">
<stop stop-color="#7700EF"/>
<stop offset="1" stop-color="#E600FE"/>
</linearGradient>
<linearGradient id="paint1_linear_25433_8539" x1="4.82626" y1="10.9338" x2="14.1017" y2="-1.25332" gradientUnits="userSpaceOnUse">
<stop stop-color="#7700EF"/>
<stop offset="1" stop-color="#E600FE"/>
</linearGradient>
</defs>
</svg>
