<svg width="17" height="27" viewBox="0 0 17 27" fill="none" xmlns="http://www.w3.org/2000/svg">
<path d="M5.74441 25.8021C5.74441 26.4628 6.28192 27.0002 6.94254 27.0002H12.2451C12.9058 27.0002 13.4432 26.4627 13.4432 25.8021V24.3087H5.74441V25.8021ZM15.9563 19.9462C16.2751 19.5383 16.4486 19.0357 16.4493 18.518V16.6457C16.4493 15.6232 15.7638 14.7093 14.7823 14.4232L10.3343 13.1268V7.92885C10.3343 6.87609 9.4778 6.01953 8.42498 6.01953C7.37217 6.01953 6.51566 6.87609 6.51566 7.92885V16.272L5.14587 14.6284C4.56348 13.9297 3.52734 13.7962 2.78686 14.3244C2.12208 14.7988 1.87467 15.6577 2.18526 16.4129C2.18875 16.4215 2.19255 16.4299 2.19666 16.4382L5.31124 22.7252H14.06L15.9563 19.9462Z" fill="white"/>
<path d="M8.42498 2.83984C5.64902 2.83984 3.39058 5.09824 3.39058 7.87419C3.39058 8.31147 3.74509 8.66598 4.18237 8.66598C4.61965 8.66598 4.97416 8.31147 4.97416 7.87419C4.97416 5.97142 6.52221 4.42342 8.42498 4.42342C10.3278 4.42342 11.8758 5.97142 11.8758 7.87419C11.8758 8.31147 12.2303 8.66598 12.6675 8.66598C13.1048 8.66598 13.4593 8.31147 13.4593 7.87419C13.4593 5.09824 11.2009 2.83984 8.42498 2.83984Z" fill="white"/>
<path d="M8.42498 1.58358C11.8938 1.58358 14.7158 4.40562 14.7158 7.87439C14.7158 8.31167 15.0703 8.66618 15.5076 8.66618C15.9449 8.66618 16.2994 8.31167 16.2994 7.87439C16.2994 3.53243 12.7669 0 8.42498 0C4.08308 0 0.550644 3.53243 0.550644 7.87439C0.550644 8.31167 0.905154 8.66618 1.34243 8.66618C1.77971 8.66618 2.13422 8.31167 2.13422 7.87439C2.13422 4.40562 4.95626 1.58358 8.42498 1.58358Z" fill="white"/>
</svg>
