<svg width="26" height="26" viewBox="0 0 26 26" fill="none" xmlns="http://www.w3.org/2000/svg">
<path d="M16.3572 5.83012H18.1521L14.8927 2.60449V4.36599C14.8923 5.20043 15.522 5.83012 16.3572 5.83012Z" fill="white"/>
<path d="M16.3572 6.64277C15.08 6.64277 14.0802 5.64258 14.0802 4.36614V2.03711H4.07834C3.17524 2.03711 2.46837 2.74358 2.46837 3.64545V22.3549C2.46837 23.2568 3.17524 23.9628 4.07834 23.9628H17.1259C17.9977 23.9628 18.7338 23.2263 18.7338 22.3549V6.64277H16.3572ZM8.96918 17.9398L6.52315 20.3858C6.48553 20.4237 6.4408 20.4538 6.39153 20.4743C6.34225 20.4948 6.2894 20.5054 6.23601 20.5054C6.18263 20.5055 6.12976 20.495 6.08046 20.4745C6.03115 20.454 5.98638 20.424 5.94871 20.3862L4.65359 19.0923C4.58101 19.0154 4.54126 18.9132 4.54276 18.8075C4.54426 18.7017 4.58689 18.6007 4.66162 18.5259C4.73635 18.451 4.83729 18.4083 4.94303 18.4066C5.04877 18.405 5.151 18.4446 5.22802 18.517L6.23593 19.5241L8.39434 17.3657C8.55318 17.2069 8.80993 17.2069 8.96877 17.3657C9.12762 17.5246 9.12802 17.7813 8.96918 17.9398ZM8.97202 13.7643L6.52599 16.2583C6.44962 16.3359 6.34521 16.3802 6.23593 16.3802H6.2343C6.17996 16.38 6.1262 16.3689 6.07623 16.3476C6.02626 16.3262 5.98109 16.295 5.94343 16.2559L4.64831 14.912C4.61125 14.8736 4.58213 14.8283 4.56258 14.7786C4.54304 14.729 4.53347 14.676 4.53441 14.6227C4.53536 14.5693 4.5468 14.5167 4.56808 14.4678C4.58937 14.4188 4.62008 14.3746 4.65846 14.3375C4.69685 14.3005 4.74215 14.2714 4.7918 14.2518C4.84144 14.2323 4.89444 14.2227 4.94778 14.2237C5.00112 14.2246 5.05376 14.236 5.10268 14.2573C5.1516 14.2786 5.19585 14.3093 5.2329 14.3477L6.23837 15.3905L8.3919 13.1952C8.46737 13.1182 8.57032 13.0744 8.67808 13.0734C8.78585 13.0724 8.88961 13.1142 8.96654 13.1897C9.04347 13.2652 9.08726 13.3681 9.08829 13.4759C9.08932 13.5836 9.0475 13.6874 8.97202 13.7643ZM8.96918 9.64048L6.52315 12.0877C6.48551 12.1256 6.44076 12.1556 6.39146 12.1761C6.34217 12.1966 6.28931 12.2072 6.23593 12.2072C6.18255 12.2072 6.12969 12.1966 6.0804 12.1761C6.0311 12.1556 5.98635 12.1256 5.94871 12.0877L4.65359 10.7922C4.61587 10.7545 4.58595 10.7097 4.56554 10.6604C4.54512 10.6111 4.53462 10.5583 4.53462 10.505C4.53462 10.4516 4.54512 10.3988 4.56554 10.3495C4.58595 10.3003 4.61587 10.2555 4.65359 10.2178C4.6913 10.18 4.73608 10.1501 4.78536 10.1297C4.83464 10.1093 4.88746 10.0988 4.9408 10.0988C4.99415 10.0988 5.04697 10.1093 5.09625 10.1297C5.14553 10.1501 5.19031 10.18 5.22802 10.2178L6.23593 11.2261L8.39434 9.06605C8.43203 9.02829 8.4768 8.99833 8.52608 8.97789C8.57537 8.95745 8.6282 8.94693 8.68155 8.94693C8.73491 8.94693 8.78774 8.95745 8.83702 8.97789C8.88631 8.99833 8.93108 9.02829 8.96877 9.06605C9.00661 9.10369 9.03664 9.14843 9.05714 9.1977C9.07765 9.24697 9.08822 9.29981 9.08826 9.35318C9.08829 9.40655 9.0778 9.4594 9.05736 9.5087C9.03693 9.55801 9.00696 9.60279 8.96918 9.64048ZM16.213 19.2589H10.9858C10.8781 19.2589 10.7747 19.2161 10.6985 19.1399C10.6224 19.0637 10.5796 18.9604 10.5796 18.8526C10.5796 18.7449 10.6224 18.6415 10.6985 18.5653C10.7747 18.4892 10.8781 18.4464 10.9858 18.4464H16.213C16.3208 18.4464 16.4241 18.4892 16.5003 18.5653C16.5765 18.6415 16.6193 18.7449 16.6193 18.8526C16.6193 18.9604 16.5765 19.0637 16.5003 19.1399C16.4241 19.2161 16.3208 19.2589 16.213 19.2589ZM16.213 15.1322H10.9858C10.8781 15.1322 10.7747 15.0894 10.6985 15.0132C10.6224 14.937 10.5796 14.8337 10.5796 14.7259C10.5796 14.6182 10.6224 14.5148 10.6985 14.4387C10.7747 14.3625 10.8781 14.3197 10.9858 14.3197H16.213C16.3208 14.3197 16.4241 14.3625 16.5003 14.4387C16.5765 14.5148 16.6193 14.6182 16.6193 14.7259C16.6193 14.8337 16.5765 14.937 16.5003 15.0132C16.4241 15.0894 16.3208 15.1322 16.213 15.1322ZM16.213 11.0075H10.9858C10.8781 11.0075 10.7747 10.9647 10.6985 10.8885C10.6224 10.8123 10.5796 10.709 10.5796 10.6013C10.5796 10.4935 10.6224 10.3902 10.6985 10.314C10.7747 10.2378 10.8781 10.195 10.9858 10.195H16.213C16.3208 10.195 16.4241 10.2378 16.5003 10.314C16.5765 10.3902 16.6193 10.4935 16.6193 10.6013C16.6193 10.709 16.5765 10.8123 16.5003 10.8885C16.4241 10.9647 16.3208 11.0075 16.213 11.0075ZM22.546 23.6191L21.8997 22.6169H23.1924L22.546 23.6191ZM23.5312 21.8044H21.5605V11.2005H23.5312V21.8044ZM23.5312 10.388H21.5605V9.59458C21.5607 9.33326 21.6646 9.0827 21.8494 8.89792C22.0342 8.71313 22.2847 8.60923 22.546 8.60901C22.8073 8.60934 23.0578 8.71329 23.2424 8.89806C23.4271 9.08283 23.531 9.33333 23.5312 9.59458V10.388Z" fill="white"/>
</svg>
