<svg width="24" height="24" viewBox="0 0 24 24" fill="none" xmlns="http://www.w3.org/2000/svg">
<path d="M12.4289 23.986C14.2642 23.7253 15.8731 21.8098 16.8855 18.981C15.422 18.6532 13.9286 18.4774 12.429 18.4563L12.4289 23.986ZM15.361 23.5362C15.4695 23.5048 15.5776 23.4731 15.6848 23.4384C15.7753 23.4093 15.8646 23.3779 15.9538 23.3467C16.0595 23.3104 16.1646 23.2725 16.2691 23.2329C16.3584 23.199 16.4468 23.163 16.5353 23.127C16.6375 23.0841 16.7396 23.0413 16.8405 22.9984C17.0289 22.9149 17.2152 22.8269 17.3993 22.7345C17.4851 22.6907 17.5708 22.6461 17.6566 22.6002C17.7528 22.5488 17.8483 22.4962 17.9432 22.4421C18.0279 22.394 18.1119 22.3448 18.1953 22.2945C18.2883 22.2373 18.3809 22.1801 18.4728 22.1229C18.5554 22.0706 18.6372 22.0171 18.7183 21.9625C18.8087 21.9011 18.8982 21.8385 18.9868 21.7747C19.0662 21.718 19.1452 21.6608 19.2239 21.6031C19.3111 21.536 19.3977 21.4682 19.4838 21.3997C19.5602 21.3388 19.6365 21.2783 19.7116 21.2157C19.7973 21.1445 19.8794 21.0707 19.9625 20.997C20.0355 20.9323 20.1088 20.8682 20.18 20.8019C20.2618 20.7254 20.3416 20.6462 20.4214 20.5677C20.4905 20.4994 20.5605 20.4322 20.6281 20.3622C20.6407 20.3492 20.6526 20.3352 20.6657 20.3218C19.7302 19.8386 18.7447 19.4594 17.7266 19.1908C17.1971 20.8794 16.2549 22.4094 14.9853 23.6422C15.0201 23.6332 15.0549 23.6258 15.0896 23.6168C15.1813 23.5911 15.2714 23.5628 15.361 23.5362ZM24.0001 12.4391H18.8571C18.8376 14.4472 18.5463 16.4433 17.9911 18.3732C19.1233 18.6757 20.2159 19.1104 21.2463 19.6686C22.9382 17.6295 23.9066 15.0871 24 12.4391H24.0001ZM12.4289 11.5812H17.9993C17.9775 9.64417 17.6934 7.71899 17.1549 5.85816C15.6038 6.2119 14.0197 6.40081 12.4289 6.42177V11.5812ZM12.4289 0.0341797V5.56392C13.9285 5.54281 15.422 5.367 16.8855 5.03929C15.8731 2.21043 14.2643 0.294965 12.429 0.0341797H12.4289ZM12.4289 17.5985C14.0197 17.6196 15.6038 17.8086 17.1549 18.1623C17.6934 16.3014 17.9775 14.3762 17.9993 12.4391H12.4289V17.5985ZM21.2464 4.35173C20.2159 4.90987 19.1233 5.34465 17.9912 5.64708C18.5464 7.57697 18.8377 9.57316 18.8572 11.5812H24.0001C23.9064 8.93329 22.938 6.391 21.2464 4.35173ZM20.6669 3.70099C20.6543 3.68823 20.6424 3.6744 20.63 3.66121C20.5622 3.59124 20.4918 3.5238 20.4227 3.45576C20.3431 3.37721 20.2637 3.29786 20.1816 3.22162C20.1106 3.1554 20.0371 3.09278 19.9642 3.02683C19.8811 2.95311 19.7979 2.87875 19.7125 2.80755C19.6383 2.74492 19.5624 2.68504 19.4869 2.62493C19.4008 2.55499 19.3134 2.48662 19.2247 2.41985C19.1471 2.36172 19.0688 2.30454 18.9897 2.24834C18.9004 2.1835 18.8101 2.1201 18.7187 2.05816C18.6384 2.00422 18.5573 1.95137 18.4756 1.89962C18.3832 1.83991 18.29 1.7817 18.1958 1.725C18.113 1.67525 18.0296 1.62651 17.9457 1.57879C17.8501 1.52412 17.7538 1.47078 17.6567 1.4188C17.5708 1.37585 17.4851 1.32915 17.3993 1.28621C17.3006 1.23635 17.2011 1.18841 17.0992 1.14129C17.0126 1.10015 16.9255 1.06034 16.8378 1.02188C16.7362 0.976847 16.6336 0.93626 16.5312 0.893314C16.4431 0.857077 16.3545 0.821885 16.2656 0.787745C16.1612 0.748196 16.0561 0.710356 15.9504 0.674241C15.8611 0.642462 15.7715 0.611809 15.6815 0.582291C15.5742 0.547548 15.467 0.515915 15.3569 0.484067C15.2677 0.457903 15.178 0.431309 15.0877 0.407397C15.0532 0.398014 15.018 0.390669 14.9832 0.381662C16.2528 1.61449 17.195 3.1444 17.7245 4.83298C18.7438 4.56451 19.7305 4.18491 20.6669 3.70099ZM0 11.5812H5.1429C5.16241 9.57318 5.45365 7.577 6.00869 5.64708C4.87652 5.3448 3.78397 4.91001 2.75369 4.35173C1.06182 6.39088 0.0934477 8.93325 0 11.5812ZM11.5711 23.986V18.4564C10.0715 18.4775 8.57806 18.6533 7.11456 18.981C8.12671 21.8099 9.73582 23.7254 11.5711 23.9861V23.986ZM11.5711 12.4391H6.00075C6.0225 14.3762 6.30656 16.3015 6.84519 18.1623C8.39622 17.8084 9.98032 17.6194 11.5711 17.5985V12.4391ZM11.5711 0.0341797C9.73582 0.294965 8.12671 2.21043 7.11456 5.03929C8.57803 5.3672 10.0715 5.54301 11.5711 5.56392V0.0341797ZM11.5711 6.42177C9.98033 6.40081 8.39625 6.21189 6.84519 5.85816C6.30656 7.71896 6.0225 9.64416 6.00075 11.5812H11.5711V6.42177ZM9.01346 0.381286C8.97872 0.39024 8.94392 0.397585 8.90918 0.406593C8.8183 0.430881 8.72865 0.457903 8.63815 0.484067C8.53049 0.515486 8.42369 0.547119 8.31565 0.581433C8.22451 0.610975 8.13492 0.642394 8.04527 0.673651C7.94034 0.710646 7.83521 0.747533 7.7313 0.786887C7.64165 0.821255 7.5533 0.856855 7.46451 0.893314C7.36248 0.936206 7.26029 0.979152 7.15954 1.02188C7.07118 1.06065 6.98384 1.10123 6.89629 1.14209C6.79713 1.18864 6.69861 1.23654 6.60076 1.28578C6.41717 1.37873 6.23594 1.47628 6.05726 1.57836C5.97205 1.62596 5.88772 1.67512 5.8043 1.7258C5.71112 1.78194 5.61896 1.84 5.52722 1.89737C5.44465 1.95013 5.36278 2.00331 5.28177 2.05822C5.1914 2.11958 5.10189 2.18219 5.01326 2.24603C4.93377 2.30274 4.85467 2.35998 4.77596 2.41776C4.68819 2.48371 4.60439 2.55244 4.51603 2.62097C4.43984 2.68187 4.36296 2.7424 4.28838 2.8054C4.20254 2.87623 4.1211 2.94952 4.03832 3.02287C3.96503 3.08817 3.89109 3.15165 3.81946 3.21931C3.73796 3.29534 3.65861 3.37426 3.57905 3.45259C3.50988 3.5209 3.43954 3.5883 3.37172 3.65848C3.35939 3.67145 3.34743 3.68571 3.3344 3.6989C4.26978 4.18228 5.25535 4.5616 6.27344 4.83008C6.80281 3.14244 7.74454 1.61344 9.01346 0.381286ZM3.57717 20.5645C3.65695 20.6431 3.73636 20.7225 3.81823 20.7989C3.88943 20.8648 3.96272 20.9275 4.0358 20.9935C4.11896 21.0674 4.20211 21.1415 4.28758 21.2128C4.36173 21.275 4.43732 21.335 4.51314 21.3953C4.59897 21.4649 4.68465 21.534 4.77553 21.6008C4.85284 21.6589 4.93139 21.7149 5.00988 21.7726C5.09953 21.8369 5.19003 21.9011 5.28134 21.9629C5.36172 22.0168 5.44277 22.0698 5.52449 22.1217C5.61724 22.1812 5.70983 22.2396 5.8043 22.2961C5.88703 22.346 5.97057 22.3948 6.05437 22.4425C6.1499 22.4972 6.24624 22.5505 6.34335 22.6023C6.42903 22.6453 6.51492 22.692 6.60076 22.7349C6.69941 22.7848 6.79892 22.8327 6.9009 22.8801C6.98674 22.9205 7.07386 22.9603 7.16228 22.9992C7.26382 23.0443 7.36628 23.0849 7.4689 23.1278C7.55726 23.1638 7.64525 23.1994 7.73446 23.2334C7.83853 23.2734 7.9441 23.3106 8.04967 23.347C8.13888 23.3783 8.2281 23.4097 8.31855 23.4388C8.42578 23.4736 8.53301 23.5054 8.64319 23.5371C8.73241 23.5632 8.82205 23.5898 8.91213 23.6139C8.94687 23.6233 8.98204 23.6307 9.01684 23.6396C7.74727 22.4067 6.80508 20.8767 6.27548 19.1881C5.25739 19.4567 4.27184 19.8362 3.33649 20.3197C3.34909 20.3325 3.36105 20.3463 3.37359 20.3595C3.43793 20.429 3.5072 20.4965 3.57717 20.5645ZM2.75369 19.6685C3.78406 19.1104 4.87658 18.6756 6.00869 18.3732C5.45365 16.4433 5.16241 14.4471 5.1429 12.439H0C0.0935802 15.087 1.06194 17.6293 2.75369 19.6685Z" fill="white"/>
</svg>
