<svg width="20" height="18" viewBox="0 0 20 18" fill="none" xmlns="http://www.w3.org/2000/svg">
<path d="M17.2659 7.21931C17.1116 7.24254 16.9729 7.32609 16.8802 7.45158C16.7876 7.57707 16.7485 7.73423 16.7717 7.88849C17.476 12.3847 13.8669 16.5828 9.30869 16.5433C-0.697784 16.1293 -0.69696 1.86967 9.30869 1.45626C10.992 1.45626 12.584 1.99849 13.9126 3.02426C14.0361 3.11961 14.1924 3.162 14.3471 3.1421C14.5019 3.1222 14.6424 3.04164 14.7377 2.91814C14.8331 2.79464 14.8755 2.63832 14.8556 2.48357C14.8357 2.32882 14.7551 2.18831 14.6316 2.09296C13.0952 0.906726 11.2546 0.279785 9.30869 0.279785C-2.2579 0.757785 -2.25778 17.242 9.30869 17.7198C14.5779 17.7651 18.7509 12.9118 17.9349 7.71332C17.9235 7.63689 17.8971 7.56348 17.8573 7.49726C17.8175 7.43105 17.765 7.37334 17.7028 7.32744C17.6407 7.28155 17.5701 7.24836 17.4951 7.22978C17.4201 7.21121 17.3421 7.20761 17.2657 7.2192L17.2659 7.21931Z" fill="white"/>
<path d="M19.2394 1.73834C19.1847 1.68381 19.1198 1.64061 19.0483 1.61119C18.9769 1.58177 18.9004 1.56672 18.8231 1.5669C18.7459 1.56707 18.6694 1.58247 18.5981 1.61221C18.5268 1.64195 18.462 1.68545 18.4076 1.74022L9.3498 10.8374L6.36038 7.83434C6.24958 7.72743 6.10128 7.66823 5.94731 7.66942C5.79335 7.67062 5.64599 7.73212 5.53685 7.84073C5.42772 7.94934 5.36551 8.09641 5.36357 8.25036C5.36164 8.40432 5.42013 8.5529 5.5265 8.66422L8.93285 12.0861C8.9875 12.141 9.05246 12.1846 9.12401 12.2143C9.19555 12.2441 9.27226 12.2594 9.34974 12.2594C9.42721 12.2594 9.50392 12.2441 9.57547 12.2143C9.64701 12.1846 9.71197 12.141 9.76662 12.0861L19.2412 2.57022C19.3513 2.45968 19.4129 2.30995 19.4126 2.15397C19.4122 1.99799 19.35 1.84842 19.2394 1.73834Z" fill="white"/>
</svg>
