<svg width="40" height="42" viewBox="0 0 40 42" fill="none" xmlns="http://www.w3.org/2000/svg">
<path d="M26.1979 7.76359H29.5114L23.4941 1.80859V5.06059C23.4934 6.60109 24.6559 7.76359 26.1979 7.76359Z" fill="url(#paint0_linear_25337_1157)"/>
<path d="M26.1979 9.26349C23.8399 9.26349 21.9941 7.41699 21.9941 5.06049V0.760742H3.52913C1.86188 0.760742 0.556885 2.06499 0.556885 3.72999V38.2705C0.556885 39.9355 1.86188 41.239 3.52913 41.239H27.6169C29.2264 41.239 30.5854 39.8792 30.5854 38.2705V9.26349H26.1979ZM12.5584 30.1195L8.04263 34.6352C7.97319 34.7052 7.89061 34.7607 7.79964 34.7986C7.70866 34.8365 7.61109 34.8561 7.51254 34.8561C7.41398 34.8562 7.31639 34.8368 7.22536 34.799C7.13433 34.7612 7.05167 34.7058 6.98213 34.636L4.59113 32.2472C4.45715 32.1052 4.38376 31.9166 4.38652 31.7214C4.38929 31.5262 4.468 31.3397 4.60596 31.2015C4.74392 31.0634 4.93027 30.9844 5.12549 30.9814C5.32071 30.9783 5.50943 31.0515 5.65163 31.1852L7.51238 33.0445L11.4971 29.0597C11.7904 28.7665 12.2644 28.7665 12.5576 29.0597C12.8509 29.353 12.8516 29.827 12.5584 30.1195ZM12.5636 22.411L8.04788 27.0152C7.90688 27.1585 7.71413 27.2402 7.51238 27.2402H7.50938C7.40905 27.24 7.30981 27.2195 7.21755 27.1801C7.1253 27.1407 7.04192 27.0831 6.97238 27.0107L4.58138 24.5297C4.51298 24.4589 4.45921 24.3752 4.42313 24.2836C4.38705 24.1919 4.36938 24.0941 4.37112 23.9956C4.37286 23.8971 4.39398 23.8 4.43328 23.7096C4.47257 23.6193 4.52927 23.5376 4.60013 23.4692C4.671 23.4008 4.75464 23.3471 4.84629 23.311C4.93793 23.2749 5.03579 23.2572 5.13427 23.259C5.23274 23.2607 5.32991 23.2818 5.42023 23.3211C5.51054 23.3604 5.59223 23.4171 5.66063 23.488L7.51688 25.4132L11.4926 21.3602C11.632 21.2182 11.822 21.1374 12.021 21.1355C12.2199 21.1336 12.4115 21.2108 12.5535 21.3501C12.6955 21.4895 12.7764 21.6795 12.7783 21.8785C12.7802 22.0774 12.703 22.269 12.5636 22.411ZM12.5584 14.7977L8.04263 19.3157C7.97314 19.3856 7.89052 19.4411 7.79952 19.4789C7.70852 19.5168 7.61094 19.5363 7.51238 19.5363C7.41383 19.5363 7.31624 19.5168 7.22524 19.4789C7.13424 19.4411 7.05162 19.3856 6.98213 19.3157L4.59113 16.924C4.5215 16.8544 4.46626 16.7717 4.42858 16.6807C4.39089 16.5897 4.3715 16.4922 4.3715 16.3937C4.3715 16.2953 4.39089 16.1978 4.42858 16.1068C4.46626 16.0158 4.5215 15.9331 4.59113 15.8635C4.66077 15.7939 4.74343 15.7386 4.83441 15.7009C4.92539 15.6632 5.02291 15.6439 5.12138 15.6439C5.21986 15.6439 5.31737 15.6632 5.40835 15.7009C5.49933 15.7386 5.582 15.7939 5.65163 15.8635L7.51238 17.725L11.4971 13.7372C11.5667 13.6675 11.6494 13.6122 11.7404 13.5745C11.8313 13.5368 11.9289 13.5173 12.0274 13.5173C12.1259 13.5173 12.2234 13.5368 12.3144 13.5745C12.4054 13.6122 12.488 13.6675 12.5576 13.7372C12.6275 13.8067 12.6829 13.8893 12.7208 13.9803C12.7586 14.0713 12.7781 14.1688 12.7782 14.2673C12.7783 14.3659 12.7589 14.4634 12.7212 14.5545C12.6835 14.6455 12.6281 14.7281 12.5584 14.7977ZM25.9316 32.5547H16.2814C16.0825 32.5547 15.8917 32.4757 15.751 32.3351C15.6104 32.1944 15.5314 32.0036 15.5314 31.8047C15.5314 31.6058 15.6104 31.4151 15.751 31.2744C15.8917 31.1338 16.0825 31.0547 16.2814 31.0547H25.9316C26.1305 31.0547 26.3213 31.1338 26.462 31.2744C26.6026 31.4151 26.6816 31.6058 26.6816 31.8047C26.6816 32.0036 26.6026 32.1944 26.462 32.3351C26.3213 32.4757 26.1305 32.5547 25.9316 32.5547ZM25.9316 24.9362H16.2814C16.0825 24.9362 15.8917 24.8572 15.751 24.7166C15.6104 24.5759 15.5314 24.3852 15.5314 24.1862C15.5314 23.9873 15.6104 23.7966 15.751 23.6559C15.8917 23.5153 16.0825 23.4362 16.2814 23.4362H25.9316C26.1305 23.4362 26.3213 23.5153 26.462 23.6559C26.6026 23.7966 26.6816 23.9873 26.6816 24.1862C26.6816 24.3852 26.6026 24.5759 26.462 24.7166C26.3213 24.8572 26.1305 24.9362 25.9316 24.9362ZM25.9316 17.3215H16.2814C16.0825 17.3215 15.8917 17.2425 15.751 17.1018C15.6104 16.9612 15.5314 16.7704 15.5314 16.5715C15.5314 16.3726 15.6104 16.1818 15.751 16.0412C15.8917 15.9005 16.0825 15.8215 16.2814 15.8215H25.9316C26.1305 15.8215 26.3213 15.9005 26.462 16.0412C26.6026 16.1818 26.6816 16.3726 26.6816 16.5715C26.6816 16.7704 26.6026 16.9612 26.462 17.1018C26.3213 17.2425 26.1305 17.3215 25.9316 17.3215ZM37.6234 40.6045L36.4301 38.7542H38.8166L37.6234 40.6045ZM39.4421 37.2542H35.8039V17.6777H39.4421V37.2542ZM39.4421 16.1777H35.8039V14.713C35.8043 14.2306 35.9961 13.768 36.3372 13.4268C36.6784 13.0857 37.1409 12.8939 37.6234 12.8935C38.1057 12.8941 38.5681 13.086 38.909 13.4271C39.25 13.7682 39.4417 14.2307 39.4421 14.713V16.1777Z" fill="url(#paint1_linear_25337_1157)"/>
<defs>
<linearGradient id="paint0_linear_25337_1157" x1="23.4941" y1="7.76359" x2="29.4488" y2="1.74667" gradientUnits="userSpaceOnUse">
<stop stop-color="#7700EF"/>
<stop offset="1" stop-color="#E600FE"/>
</linearGradient>
<linearGradient id="paint1_linear_25337_1157" x1="0.556885" y1="41.239" x2="41.0025" y2="2.38507" gradientUnits="userSpaceOnUse">
<stop stop-color="#7700EF"/>
<stop offset="1" stop-color="#E600FE"/>
</linearGradient>
</defs>
</svg>
