<svg width="40" height="40" viewBox="0 0 40 40" fill="none" xmlns="http://www.w3.org/2000/svg">
<path d="M20.7149 39.9769C23.7736 39.5423 26.4552 36.3498 28.1425 31.6352C25.7034 31.0888 23.2143 30.7958 20.715 30.7607L20.7149 39.9769ZM25.6017 39.2272C25.7825 39.1748 25.9627 39.1221 26.1414 39.0642C26.2921 39.0156 26.4409 38.9633 26.5896 38.9113C26.7658 38.8508 26.941 38.7876 27.1152 38.7217C27.2639 38.6652 27.4113 38.6051 27.5589 38.5451C27.7292 38.4736 27.8993 38.4024 28.0675 38.3308C28.3814 38.1917 28.6919 38.045 28.9988 37.891C29.1419 37.8181 29.2847 37.7437 29.4277 37.6672C29.588 37.5814 29.7472 37.4938 29.9053 37.4036C30.0465 37.3235 30.1866 37.2415 30.3255 37.1576C30.4806 37.0623 30.6348 36.967 30.7881 36.8716C30.9257 36.7845 31.0621 36.6954 31.1971 36.6044C31.3477 36.5021 31.4969 36.3977 31.6447 36.2913C31.777 36.1968 31.9087 36.1015 32.0398 36.0053C32.1851 35.8936 32.3295 35.7806 32.4729 35.6664C32.6003 35.5649 32.7274 35.464 32.8527 35.3596C32.9955 35.2409 33.1324 35.1181 33.2709 34.9952C33.3924 34.8873 33.5146 34.7805 33.6333 34.6699C33.7697 34.5424 33.9027 34.4105 34.0357 34.2796C34.1509 34.1659 34.2674 34.0538 34.3802 33.9372C34.4012 33.9156 34.421 33.8921 34.4428 33.8698C32.8837 33.0645 31.2411 32.4324 29.5444 31.9849C28.6619 34.7992 27.0915 37.3491 24.9755 39.4038C25.0335 39.3888 25.0914 39.3766 25.1493 39.3616C25.3022 39.3187 25.4523 39.2715 25.6017 39.2272ZM40.0001 20.732H31.4285C31.396 24.0788 30.9105 27.4057 29.9852 30.6222C31.8721 31.1263 33.6931 31.8509 35.4105 32.7811C38.2303 29.3826 39.8443 25.1453 40 20.732H40.0001ZM20.7149 19.3022H29.9988C29.9624 16.0738 29.489 12.8651 28.5914 9.76376C26.0063 10.3533 23.3661 10.6682 20.7149 10.7031V19.3022ZM20.7149 0.0571289V9.27336C23.2142 9.23818 25.7033 8.94517 28.1425 8.39898C26.4552 3.68421 23.7738 0.491772 20.715 0.0571289H20.7149ZM20.7149 29.331C23.3661 29.3662 26.0063 29.6812 28.5914 30.2707C29.489 27.1692 29.9624 23.9605 29.9988 20.732H20.7149V29.331ZM35.4106 7.25304C33.6932 8.18328 31.8722 8.90792 29.9853 9.41195C30.9106 12.6284 31.3961 15.9554 31.4286 19.3022H40.0001C39.844 14.889 38.23 10.6518 35.4106 7.25304ZM34.4448 6.16849C34.4238 6.14722 34.404 6.12416 34.3833 6.10218C34.2703 5.98557 34.153 5.87316 34.0378 5.75976C33.9052 5.62885 33.7728 5.4966 33.636 5.36953C33.5177 5.25917 33.3952 5.1548 33.2737 5.04489C33.1352 4.92202 32.9966 4.79808 32.8541 4.67941C32.7305 4.57504 32.6039 4.47522 32.4782 4.37505C32.3346 4.25849 32.1889 4.14453 32.0412 4.03325C31.9119 3.93636 31.7813 3.84107 31.6496 3.74739C31.5007 3.63934 31.3501 3.53367 31.1979 3.43044C31.064 3.34053 30.9289 3.25245 30.7926 3.1662C30.6387 3.06668 30.4833 2.96965 30.3262 2.87516C30.1883 2.79225 30.0494 2.71102 29.9095 2.63148C29.7502 2.54036 29.5896 2.45147 29.4278 2.36483C29.2847 2.29325 29.1419 2.21542 28.9988 2.14384C28.8344 2.06074 28.6685 1.98085 28.4986 1.90231C28.3544 1.83374 28.2092 1.7674 28.063 1.7033C27.8936 1.62824 27.7226 1.5606 27.5519 1.48902C27.4051 1.42863 27.2575 1.36997 27.1093 1.31307C26.9352 1.24716 26.7601 1.18409 26.584 1.1239C26.4352 1.07093 26.2858 1.01985 26.1358 0.970647C25.957 0.912742 25.7783 0.86002 25.5948 0.806941C25.4461 0.763334 25.2967 0.719012 25.1462 0.679158C25.0886 0.66352 25.03 0.651278 24.972 0.636265C27.088 2.69098 28.6583 5.24083 29.5409 8.05513C31.2397 7.60768 32.8842 6.97501 34.4448 6.16849ZM0 19.3022H8.5715C8.60402 15.9555 9.08942 12.6285 10.0145 9.41195C8.12754 8.90816 6.30662 8.18351 4.58948 7.25304C1.76971 10.6516 0.155746 14.8889 0 19.3022ZM19.2851 39.9769V30.7608C16.7858 30.796 14.2968 31.089 11.8576 31.6352C13.5445 36.35 16.2264 39.5424 19.2851 39.9771V39.9769ZM19.2851 20.732H10.0013C10.0375 23.9605 10.5109 27.1693 11.4087 30.2707C13.9937 29.6808 16.6339 29.3658 19.2851 29.331V20.732ZM19.2851 0.0571289C16.2264 0.491772 13.5445 3.68421 11.8576 8.39898C14.2967 8.9455 16.7858 9.23852 19.2851 9.27336V0.0571289ZM19.2851 10.7031C16.6339 10.6682 13.9938 10.3533 11.4087 9.76376C10.5109 12.8651 10.0375 16.0738 10.0013 19.3022H19.2851V10.7031ZM15.0224 0.63564C14.9645 0.650563 14.9065 0.662805 14.8486 0.677817C14.6972 0.718297 14.5478 0.763334 14.3969 0.806941C14.2175 0.859306 14.0395 0.912027 13.8594 0.969217C13.7075 1.01845 13.5582 1.07082 13.4088 1.12291C13.2339 1.18457 13.0587 1.24605 12.8855 1.31164C12.7361 1.36892 12.5888 1.42826 12.4408 1.48902C12.2708 1.56051 12.1005 1.63208 11.9326 1.7033C11.7853 1.76791 11.6397 1.83555 11.4938 1.90365C11.3285 1.98122 11.1644 2.06106 11.0013 2.14313C10.6953 2.29804 10.3932 2.46064 10.0954 2.63076C9.95342 2.71009 9.81286 2.79202 9.67384 2.8765C9.51853 2.97006 9.36492 3.06683 9.21203 3.16245C9.07442 3.25038 8.93797 3.33902 8.80295 3.43052C8.65234 3.5328 8.50315 3.63715 8.35543 3.74355C8.22296 3.83806 8.09112 3.93347 7.95993 4.02977C7.81365 4.13968 7.67398 4.25424 7.52672 4.36844C7.39974 4.46995 7.2716 4.57084 7.1473 4.67583C7.00424 4.79388 6.8685 4.91603 6.73053 5.03827C6.60837 5.14711 6.48515 5.25291 6.36576 5.36568C6.22994 5.4924 6.09769 5.62393 5.96508 5.75449C5.8498 5.86833 5.73257 5.98065 5.61953 6.09763C5.59897 6.11925 5.57905 6.14302 5.55733 6.165C7.1163 6.97062 8.75892 7.60284 10.4557 8.0503C11.338 5.23757 12.9076 2.68924 15.0224 0.63564ZM5.96195 34.2743C6.09492 34.4053 6.22726 34.5376 6.36371 34.6649C6.48238 34.7748 6.60453 34.8793 6.72633 34.9893C6.86492 35.1124 7.00352 35.236 7.14596 35.3548C7.26954 35.4584 7.39554 35.5585 7.52189 35.659C7.66496 35.7749 7.80775 35.8901 7.95922 36.0016C8.08807 36.0982 8.21898 36.1917 8.3498 36.2878C8.49921 36.3949 8.65005 36.5021 8.80223 36.605C8.93619 36.6949 9.07129 36.7831 9.20747 36.8696C9.36207 36.9688 9.51639 37.0662 9.67384 37.1604C9.81172 37.2435 9.95094 37.3248 10.0906 37.4043C10.2498 37.4955 10.4104 37.5843 10.5723 37.6707C10.7151 37.7423 10.8582 37.8201 11.0013 37.8917C11.1657 37.9748 11.3315 38.0547 11.5015 38.1336C11.6446 38.201 11.7898 38.2673 11.9371 38.3322C12.1064 38.4073 12.2771 38.4749 12.4482 38.5465C12.5954 38.6066 12.7421 38.6659 12.8908 38.7225C13.0642 38.7891 13.2402 38.8512 13.4161 38.9119C13.5648 38.964 13.7135 39.0164 13.8642 39.0649C14.043 39.1228 14.2217 39.1759 14.4053 39.2286C14.554 39.2722 14.7034 39.3165 14.8535 39.3566C14.9114 39.3724 14.9701 39.3846 15.0281 39.3995C12.9121 37.3446 11.3418 34.7947 10.4591 31.9803C8.76232 32.428 7.11973 33.0605 5.56082 33.8663C5.58182 33.8876 5.60174 33.9106 5.62265 33.9326C5.72989 34.0485 5.84534 34.1609 5.96195 34.2743ZM4.58948 32.7811C6.30676 31.8509 8.12764 31.1262 10.0145 30.6221C9.08942 27.4056 8.60402 24.0786 8.5715 20.7319H0C0.155967 25.1451 1.7699 29.3823 4.58948 32.7811Z" fill="url(#paint0_linear_25309_2275)"/>
<defs>
<linearGradient id="paint0_linear_25309_2275" x1="0" y1="39.9771" x2="39.9198" y2="-0.0229488" gradientUnits="userSpaceOnUse">
<stop stop-color="#7700EF"/>
<stop offset="1" stop-color="#E600FE"/>
</linearGradient>
</defs>
</svg>
