<svg width="40" height="40" viewBox="0 0 40 40" fill="none" xmlns="http://www.w3.org/2000/svg">
<g clip-path="url(#clip0_25337_1168)">
<path d="M15.9174 38.225C15.9174 39.2038 16.7137 40 17.6924 40H25.548C26.5268 40 27.3231 39.2037 27.3231 38.225V36.0126H15.9174V38.225ZM31.0461 29.5496C31.5184 28.9453 31.7755 28.2007 31.7766 27.4338V24.6599C31.7766 23.1452 30.761 21.7912 29.3068 21.3674L22.7172 19.4468V11.7461C22.7172 10.1865 21.4483 8.91748 19.8886 8.91748C18.3289 8.91748 17.06 10.1865 17.06 11.7461V24.1063L15.0307 21.6714C14.1679 20.6363 12.6329 20.4385 11.5359 21.2211C10.551 21.9238 10.1845 23.1962 10.6446 24.3151C10.6498 24.3278 10.6554 24.3402 10.6615 24.3525L15.2757 33.6666H28.2368L31.0461 29.5496Z" fill="url(#paint0_linear_25337_1168)"/>
<path d="M19.889 4.20752C15.7765 4.20752 12.4307 7.55329 12.4307 11.6658C12.4307 12.3136 12.9559 12.8388 13.6037 12.8388C14.2515 12.8388 14.7767 12.3136 14.7767 11.6658C14.7767 8.84689 17.0701 6.55356 19.889 6.55356C22.708 6.55356 25.0013 8.84689 25.0013 11.6658C25.0013 12.3136 25.5265 12.8388 26.1743 12.8388C26.8221 12.8388 27.3473 12.3136 27.3473 11.6658C27.3473 7.55329 24.0016 4.20752 19.889 4.20752Z" fill="url(#paint1_linear_25337_1168)"/>
<path d="M19.8888 2.34604C25.0278 2.34604 29.2086 6.52684 29.2086 11.6658C29.2086 12.3136 29.7338 12.8388 30.3816 12.8388C31.0294 12.8388 31.5546 12.3136 31.5546 11.6658C31.5546 5.23324 26.3214 0 19.8888 0C13.4564 0 8.22314 5.23324 8.22314 11.6658C8.22314 12.3136 8.74834 12.8388 9.39617 12.8388C10.044 12.8388 10.5692 12.3136 10.5692 11.6658C10.5692 6.52684 14.75 2.34604 19.8888 2.34604Z" fill="url(#paint2_linear_25337_1168)"/>
</g>
<defs>
<linearGradient id="paint0_linear_25337_1168" x1="10.4478" y1="40" x2="39.4494" y2="20.0991" gradientUnits="userSpaceOnUse">
<stop stop-color="#7700EF"/>
<stop offset="1" stop-color="#E600FE"/>
</linearGradient>
<linearGradient id="paint1_linear_25337_1168" x1="12.4307" y1="12.8388" x2="19.9139" y2="-0.0937291" gradientUnits="userSpaceOnUse">
<stop stop-color="#7700EF"/>
<stop offset="1" stop-color="#E600FE"/>
</linearGradient>
<linearGradient id="paint2_linear_25337_1168" x1="8.22314" y1="12.8388" x2="19.0688" y2="-6.87065" gradientUnits="userSpaceOnUse">
<stop stop-color="#7700EF"/>
<stop offset="1" stop-color="#E600FE"/>
</linearGradient>
<clipPath id="clip0_25337_1168">
<rect width="40" height="40" fill="white"/>
</clipPath>
</defs>
</svg>
